<svg xmlns="http://www.w3.org/2000/svg" viewBox="0 0 395.2 80.3">
  <defs>
    <style>
      .a {
        fill: #3e3a39;
      }
    </style>
  </defs>
  <g>
    <path class="a" d="M506.5,705.4a40.1,40.1,0,1,0,40.1,40.1A40.2,40.2,0,0,0,506.5,705.4Zm0,67a26.9,26.9,0,1,1,26.9-26.9A27,27,0,0,1,506.5,772.4Z" transform="translate(-325.8 -705.3)"/>
    <path class="a" d="M721,744.5h0a40.7,40.7,0,0,0-3.4-15.2h0l-.9-1.7h0l-.8-1.7h-.1l-.9-1.6h-.1l-.9-1.4-.2-.2-1-1.4-.2-.2-.9-1.2-.3-.3-1-1.1-.3-.4-1-1c-.1-.1-.3-.2-.4-.4l-1-.9c-.1-.1-.3-.2-.4-.4l-1-.8-.6-.4-.9-.8-.6-.4-1-.7-.7-.4-.9-.6-.8-.4-.8-.5-.9-.5-.8-.4-1-.4-.8-.4-1.1-.4-.7-.3-1.2-.4-.6-.2-1.3-.4h-.6l-1.4-.4h-.6l-1.4-.3H687l-1.5-.2h-4.6a40.1,40.1,0,1,0,0,80.2h4.3l1.2-.2h.9l1.3-.2.6-.2,1.6-.3h.3a40,40,0,0,0,21.2-13.8.3.3,0,0,0,.1-.2h.1l.2-.4a6.5,6.5,0,0,0,1.2-3.7,6.6,6.6,0,0,0-11.9-4h0a26.4,26.4,0,0,1-14.3,9.3.1.1,0,0,0-.1.1l-1.1.2h-.4l-.9.2h-6.7l-2-.3h-.4l-2-.5h0l-2-.6h-.2l-1.9-.7h-.2l-1.9-.9h0l-3.6-2.3c0-.1,0-.1-.1-.1a27.9,27.9,0,0,1-4.5-4.6h0a26.7,26.7,0,0,1,0-33h0a27.9,27.9,0,0,1,4.5-4.6c.1,0,.1,0,.1-.1l3.6-2.3h0l1.9-1h.2l1.9-.7h.2l2-.6h0l2-.5h.4l2-.3h4.9l1.9.3h.5l1.9.4h.2l1.7.6h.4l1.7.7.5.2,1.6.8.3.2,1.5.9.3.2,1.4,1,.4.3,1.4,1.2.3.3,1.2,1.2.2.2,1.2,1.4.3.4a13,13,0,0,1,1,1.5l.3.4.9,1.4a.5.5,0,0,0,.2.4l.7,1.5.2.5.7,1.6c0,.2.1.4.1.6l.6,1.7H674.1a6.6,6.6,0,1,0,0,13.2h40.3a6.6,6.6,0,0,0,6.6-6.6v-1Z" transform="translate(-325.8 -705.3)"/>
    <path class="a" d="M593.7,705.3a40.2,40.2,0,0,0-40.1,40.1V779h0a6.6,6.6,0,0,0,13.2,0h0V745.4a26.9,26.9,0,0,1,53.8,0V779h0a6.6,6.6,0,0,0,13.2,0h0V745.4A40.2,40.2,0,0,0,593.7,705.3Z" transform="translate(-325.8 -705.3)"/>
    <path class="a" d="M450.4,746.6l-18.7-13a7.6,7.6,0,0,1-3.3-5.2,8,8,0,0,1,1.3-6.2,8.2,8.2,0,0,1,11.4-2l8,5.6a6.6,6.6,0,0,0,7.6-10.9l-8-5.6a21.4,21.4,0,1,0-24.5,35.2l18.6,13a8,8,0,0,1,3.4,5.2,8.4,8.4,0,0,1-1.3,6.2,8.6,8.6,0,0,1-6.9,3.5H414.3a8.3,8.3,0,0,1-6.8-3.5,7.6,7.6,0,0,1-1.5-4.5h0V745.5a40.1,40.1,0,1,0-40.1,40.1H373a6.6,6.6,0,0,0,0-13.2h-7.1a26.9,26.9,0,1,1,26.9-26.9v18.9a20.6,20.6,0,0,0,3.8,12,21.2,21.2,0,0,0,17.5,9.2h24a21.4,21.4,0,0,0,17.6-9.2,21.1,21.1,0,0,0,3.5-16A21.3,21.3,0,0,0,450.4,746.6Z" transform="translate(-325.8 -705.3)"/>
  </g>
</svg>
