<svg xmlns="http://www.w3.org/2000/svg" xmlns:xlink="http://www.w3.org/1999/xlink" viewBox="0 0 141.4 103.4">
  <defs>
    <style>
      .a, .b, .c, .d, .e, .f, .g, .h, .i, .j, .k, .l, .m, .n, .o, .p, .q, .r, .s, .t, .u, .v, .w, .x, .y, .z {fill-rule: evenodd;}
      .a { fill: url(#a); }
      .b { fill: url(#b); }
      .c { fill: url(#c); }
      .d { fill: url(#d); }
      .e { fill: url(#e); }
      .f { fill: url(#f); }
      .g { fill: url(#g); }
      .h { fill: url(#h); }
      .i { fill: url(#i); }
      .j { fill: url(#j); }
      .k { fill: url(#k); }
      .l { fill: url(#l); }
      .m { fill: url(#m); }
      .n { fill: url(#n); }
      .o { fill: url(#o); }
      .p { fill: url(#p); }
      .q { fill: url(#q); }
      .r { fill: url(#r); }
      .s { fill: url(#s); }
      .t { fill: url(#t); }
      .u { fill: url(#u); }
      .v { fill: url(#v); }
      .w { fill: url(#w); }
      .x { fill: url(#x); }
      .y { fill: url(#y); }
      .z { fill: #ea5504;}
    </style>
    <linearGradient id="a" x1="709.12" y1="540.53" x2="813.84" y2="518.77" gradientTransform="translate(-253.2 253.2)" gradientUnits="userSpaceOnUse">
      <stop offset="0" stop-color="#fedb75"/>
      <stop offset="1" stop-color="#ea5703"/>
    </linearGradient>
    <linearGradient id="b" x1="705.19" y1="521.63" x2="809.91" y2="499.87" xlink:href="#a"/>
    <linearGradient id="c" x1="701.67" y1="504.73" x2="806.4" y2="482.97" xlink:href="#a"/>
    <linearGradient id="d" x1="698.51" y1="489.53" x2="803.25" y2="467.77" xlink:href="#a"/>
    <linearGradient id="e" x1="695.66" y1="475.76" x2="800.38" y2="454" xlink:href="#a"/>
    <linearGradient id="f" x1="709.69" y1="543.32" x2="814.43" y2="521.55" xlink:href="#a"/>
    <linearGradient id="g" x1="705.49" y1="523.08" x2="810.21" y2="501.32" xlink:href="#a"/>
    <linearGradient id="h" x1="701.76" y1="505.1" x2="806.47" y2="483.35" xlink:href="#a"/>
    <linearGradient id="i" x1="698.43" y1="489.06" x2="803.13" y2="467.3" xlink:href="#a"/>
    <linearGradient id="j" x1="695.41" y1="474.61" x2="800.15" y2="452.85" xlink:href="#a"/>
    <linearGradient id="k" x1="710.36" y1="546.5" x2="815.08" y2="524.74" xlink:href="#a"/>
    <linearGradient id="l" x1="705.84" y1="524.75" x2="810.55" y2="503" xlink:href="#a"/>
    <linearGradient id="m" x1="701.86" y1="505.6" x2="806.58" y2="483.84" xlink:href="#a"/>
    <linearGradient id="n" x1="698.34" y1="488.6" x2="803.04" y2="466.84" xlink:href="#a"/>
    <linearGradient id="o" x1="695.17" y1="473.38" x2="799.88" y2="451.62" xlink:href="#a"/>
    <linearGradient id="p" x1="711.13" y1="550.17" x2="815.84" y2="528.41" xlink:href="#a"/>
    <linearGradient id="q" x1="706.27" y1="526.75" x2="810.97" y2="505" xlink:href="#a"/>
    <linearGradient id="r" x1="702.01" y1="506.26" x2="806.71" y2="484.5" xlink:href="#a"/>
    <linearGradient id="s" x1="698.24" y1="488.17" x2="802.96" y2="466.41" xlink:href="#a"/>
    <linearGradient id="t" x1="694.89" y1="472.08" x2="799.61" y2="450.32" xlink:href="#a"/>
    <linearGradient id="u" x1="712.03" y1="554.48" x2="816.73" y2="532.72" xlink:href="#a"/>
    <linearGradient id="v" x1="706.77" y1="529.15" x2="811.47" y2="507.4" xlink:href="#a"/>
    <linearGradient id="w" x1="702.19" y1="507.13" x2="806.9" y2="485.37" xlink:href="#a"/>
    <linearGradient id="x" x1="698.16" y1="487.81" x2="802.88" y2="466.05" xlink:href="#a"/>
    <linearGradient id="y" x1="694.61" y1="470.7" x2="799.33" y2="448.94" xlink:href="#a"/>
  </defs>
  <path class="a" d="M469.1,785.4c-2.2.1-4.6,2.7-5.4,5.9s.5,5.9,2.8,5.9,4.8-2.8,5.5-6.1-.6-5.9-2.9-5.7Z" transform="translate(-463.5 -695.3)"/>
  <path class="b" d="M473.7,765.3c-2.2.3-4.5,2.8-5.2,5.7s.5,5.1,2.8,4.9,4.6-2.9,5.2-5.8-.7-5.1-2.8-4.8Z" transform="translate(-463.5 -695.3)"/>
  <path class="c" d="M477.8,747.4c-2.1.4-4.3,2.7-4.9,5.3s.6,4.5,2.7,4.1,4.4-2.9,5-5.5-.7-4.4-2.8-3.9Z" transform="translate(-463.5 -695.3)"/>
  <path class="d" d="M481.6,731.1a7.5,7.5,0,0,0-4.7,5.1c-.6,2.4.6,4,2.7,3.5s4.2-2.9,4.8-5.3-.8-3.8-2.8-3.3Z" transform="translate(-463.5 -695.3)"/>
  <path class="e" d="M485,716.4a7.5,7.5,0,0,0-4.4,4.9c-.5,2.1.6,3.5,2.6,2.9a7.7,7.7,0,0,0,4.6-5c.5-2.2-.8-3.4-2.8-2.8Z" transform="translate(-463.5 -695.3)"/>
  <path class="f" d="M485.2,784.1c-2.7.2-5.4,3.1-6.1,6.7s.9,6.7,3.7,6.7,5.7-3.2,6.3-7-1.2-6.5-3.9-6.4Z" transform="translate(-463.5 -695.3)"/>
  <path class="g" d="M489.1,763c-2.6.3-5.2,3.1-5.8,6.3s.9,5.7,3.6,5.5,5.4-3.3,6-6.6-1.2-5.6-3.8-5.2Z" transform="translate(-463.5 -695.3)"/>
  <path class="h" d="M492.6,744.1c-2.5.5-4.9,3.1-5.5,6s1,5,3.5,4.5,5.2-3.2,5.7-6.1-1.2-4.9-3.7-4.4Z" transform="translate(-463.5 -695.3)"/>
  <path class="i" d="M495.9,727.2a8,8,0,0,0-5.3,5.7c-.5,2.6,1,4.3,3.5,3.8a8,8,0,0,0,5.3-5.9c.5-2.7-1.1-4.2-3.5-3.6Z" transform="translate(-463.5 -695.3)"/>
  <path class="j" d="M498.8,712a7.9,7.9,0,0,0-5,5.4c-.5,2.3,1,3.8,3.4,3.1a8,8,0,0,0,5.1-5.6c.5-2.4-1.1-3.7-3.5-2.9Z" transform="translate(-463.5 -695.3)"/>
  <path class="k" d="M503.4,782.7c-3.3.2-6.3,3.5-6.9,7.6s1.5,7.6,4.9,7.5,6.7-3.6,7.2-7.8-1.9-7.4-5.2-7.3Z" transform="translate(-463.5 -695.3)"/>
  <path class="l" d="M506.5,760.3c-3.2.4-6,3.6-6.6,7.2s1.5,6.4,4.7,6.1,6.4-3.7,6.9-7.4-1.9-6.3-5-5.9Z" transform="translate(-463.5 -695.3)"/>
  <path class="m" d="M509.2,740.5a8.7,8.7,0,0,0-6.2,6.8c-.5,3.1,1.5,5.5,4.6,5s6-3.7,6.4-7-1.8-5.4-4.8-4.8Z" transform="translate(-463.5 -695.3)"/>
  <path class="n" d="M511.8,722.9a8.2,8.2,0,0,0-5.9,6.3c-.5,2.9,1.4,4.8,4.4,4.2a8.7,8.7,0,0,0,6.1-6.6c.4-3-1.8-4.7-4.6-3.9Z" transform="translate(-463.5 -695.3)"/>
  <path class="o" d="M514.1,707c-2.7.9-5.2,3.6-5.6,6.1s1.4,4.1,4.2,3.4,5.5-3.7,5.8-6.3-1.6-4-4.4-3.2Z" transform="translate(-463.5 -695.3)"/>
  <path class="p" d="M524.3,781.2c-4,.2-7.5,4-7.9,8.5s2.3,8.5,6.5,8.5,7.9-4.1,8.2-8.9-2.8-8.3-6.8-8.1Z" transform="translate(-463.5 -695.3)"/>
  <path class="q" d="M526.2,757.4a9.1,9.1,0,0,0-7.4,8c-.4,4.1,2.3,7.2,6.2,6.9s7.5-4.1,7.7-8.3-2.7-7-6.5-6.6Z" transform="translate(-463.5 -695.3)"/>
  <path class="r" d="M528,736.6a9.2,9.2,0,0,0-7,7.5c-.4,3.6,2.2,6.1,5.9,5.6s7.1-4.2,7.3-7.8-2.6-6-6.2-5.3Z" transform="translate(-463.5 -695.3)"/>
  <path class="s" d="M529.7,718.1c-3.4.9-6.3,4-6.7,7.1s2.1,5.3,5.6,4.5,6.7-4.1,7-7.4-2.5-5-5.9-4.2Z" transform="translate(-463.5 -695.3)"/>
  <path class="t" d="M531.2,701.6c-3.2,1-6,4-6.3,6.8s2,4.5,5.3,3.6,6.4-4.1,6.6-7-2.4-4.4-5.6-3.4Z" transform="translate(-463.5 -695.3)"/>
  <path class="u" d="M548.3,779.5a9.9,9.9,0,0,0-9,9.6c-.2,5.2,3.5,9.6,8.6,9.6s9.5-4.6,9.5-10.1-4.2-9.4-9.1-9.1Z" transform="translate(-463.5 -695.3)"/>
  <path class="v" d="M548.9,754.3a9.6,9.6,0,0,0-8.5,8.9,7.3,7.3,0,0,0,8.1,7.7,9.9,9.9,0,0,0,8.9-9.4c0-4.7-3.9-7.8-8.5-7.2Z" transform="translate(-463.5 -695.3)"/>
  <path class="w" d="M549.4,732.2c-4.3.8-7.8,4.5-7.9,8.4s3.1,6.8,7.6,6.2,8.3-4.7,8.3-8.8-3.7-6.6-8-5.8Z" transform="translate(-463.5 -695.3)"/>
  <path class="x" d="M549.9,712.8c-4.1,1-7.3,4.5-7.5,8s3,5.7,7.2,4.9,7.8-4.7,7.8-8.3-3.4-5.6-7.5-4.6Z" transform="translate(-463.5 -695.3)"/>
  <path class="y" d="M550.3,695.6c-3.8,1.2-6.9,4.5-7,7.6s2.8,4.9,6.8,3.8,7.3-4.6,7.3-7.8-3.2-4.7-7.1-3.6Z" transform="translate(-463.5 -695.3)"/>
  <path class="z" d="M597,781.2c4,.2,7.4,4,7.9,8.5s-2.4,8.5-6.6,8.5-7.9-4.1-8.2-8.9,2.9-8.3,6.9-8.1Z" transform="translate(-463.5 -695.3)"/>
  <path class="z" d="M595,757.4a9,9,0,0,1,7.4,8c.4,4.1-2.3,7.2-6.2,6.9s-7.4-4.1-7.7-8.3,2.7-7,6.5-6.6Z" transform="translate(-463.5 -695.3)"/>
  <path class="z" d="M593.2,736.6a8.9,8.9,0,0,1,7,7.5c.4,3.6-2.2,6.1-5.9,5.6a9.2,9.2,0,0,1-7.3-7.8c-.2-3.7,2.6-6,6.2-5.3Z" transform="translate(-463.5 -695.3)"/>
  <path class="z" d="M591.5,718.1c3.4.9,6.4,4,6.7,7.1s-2.1,5.3-5.6,4.5-6.7-4.1-6.9-7.4,2.5-5,5.8-4.2Z" transform="translate(-463.5 -695.3)"/>
  <path class="z" d="M590,701.6c3.3,1,6,4,6.4,6.8s-2.1,4.5-5.4,3.6-6.3-4.1-6.6-7,2.4-4.4,5.6-3.4Z" transform="translate(-463.5 -695.3)"/>
  <path class="z" d="M572.9,779.5a9.9,9.9,0,0,1,9,9.6c.2,5.2-3.5,9.6-8.6,9.6s-9.5-4.6-9.5-10.1,4.2-9.4,9.1-9.1Z" transform="translate(-463.5 -695.3)"/>
  <path class="z" d="M572.3,754.3a9.6,9.6,0,0,1,8.5,8.9,7.3,7.3,0,0,1-8.1,7.7,9.9,9.9,0,0,1-8.9-9.4c0-4.7,3.9-7.8,8.5-7.2Z" transform="translate(-463.5 -695.3)"/>
  <path class="z" d="M571.8,732.2c4.3.8,7.8,4.5,8,8.4s-3.2,6.8-7.7,6.2-8.3-4.7-8.3-8.8,3.7-6.6,8-5.8Z" transform="translate(-463.5 -695.3)"/>
  <path class="z" d="M571.3,712.8c4.1,1,7.4,4.5,7.5,8s-2.9,5.7-7.2,4.9-7.8-4.7-7.8-8.3,3.5-5.6,7.5-4.6Z" transform="translate(-463.5 -695.3)"/>
  <path class="z" d="M570.9,695.6c3.8,1.2,6.9,4.5,7.1,7.6s-2.8,4.9-6.8,3.8-7.4-4.6-7.4-7.8,3.2-4.7,7.1-3.6Z" transform="translate(-463.5 -695.3)"/>
</svg>
