<svg xmlns="http://www.w3.org/2000/svg" xmlns:xlink="http://www.w3.org/1999/xlink" viewBox="0 0 561 103.4">
  <defs>
    <style>
      .a {
        fill: #404041;
      }

      .aa, .b, .c, .d, .e, .f, .g, .h, .i, .j, .k, .l, .m, .n, .o, .p, .q, .r, .s, .t, .u, .v, .w, .x, .y, .z {
        fill-rule: evenodd;
      }

      .b {
        fill: url(#a);
      }

      .c {
        fill: url(#b);
      }

      .d {
        fill: url(#c);
      }

      .e {
        fill: url(#d);
      }

      .f {
        fill: url(#e);
      }

      .g {
        fill: url(#f);
      }

      .h {
        fill: url(#g);
      }

      .i {
        fill: url(#h);
      }

      .j {
        fill: url(#i);
      }

      .k {
        fill: url(#j);
      }

      .l {
        fill: url(#k);
      }

      .m {
        fill: url(#l);
      }

      .n {
        fill: url(#m);
      }

      .o {
        fill: url(#n);
      }

      .p {
        fill: url(#o);
      }

      .q {
        fill: url(#p);
      }

      .r {
        fill: url(#q);
      }

      .s {
        fill: url(#r);
      }

      .t {
        fill: url(#s);
      }

      .u {
        fill: url(#t);
      }

      .v {
        fill: url(#u);
      }

      .w {
        fill: url(#v);
      }

      .x {
        fill: url(#w);
      }

      .y {
        fill: url(#x);
      }

      .z {
        fill: url(#y);
      }

      .aa {
        fill: #f15a21;
      }
    </style>
    <linearGradient id="a" x1="245.61" y1="-154.72" x2="350.34" y2="-176.48" gradientTransform="translate(-253.2 253.2)" gradientUnits="userSpaceOnUse">
      <stop offset="0" stop-color="#ffd67b"/>
      <stop offset="1" stop-color="#f15c21"/>
    </linearGradient>
    <linearGradient id="b" x1="241.69" y1="-173.62" x2="346.41" y2="-195.38" xlink:href="#a"/>
    <linearGradient id="c" x1="238.17" y1="-190.52" x2="342.9" y2="-212.28" xlink:href="#a"/>
    <linearGradient id="d" x1="235.01" y1="-205.72" x2="339.75" y2="-227.49" xlink:href="#a"/>
    <linearGradient id="e" x1="232.15" y1="-219.49" x2="336.88" y2="-241.25" xlink:href="#a"/>
    <linearGradient id="f" x1="246.19" y1="-151.94" x2="350.93" y2="-173.7" xlink:href="#a"/>
    <linearGradient id="g" x1="241.99" y1="-172.18" x2="346.71" y2="-193.94" xlink:href="#a"/>
    <linearGradient id="h" x1="238.26" y1="-190.15" x2="342.97" y2="-211.91" xlink:href="#a"/>
    <linearGradient id="i" x1="234.93" y1="-206.2" x2="339.63" y2="-227.95" xlink:href="#a"/>
    <linearGradient id="j" x1="231.91" y1="-220.64" x2="336.64" y2="-242.41" xlink:href="#a"/>
    <linearGradient id="k" x1="246.85" y1="-148.75" x2="351.58" y2="-170.51" xlink:href="#a"/>
    <linearGradient id="l" x1="242.34" y1="-170.5" x2="347.05" y2="-192.26" xlink:href="#a"/>
    <linearGradient id="m" x1="238.36" y1="-189.65" x2="343.08" y2="-211.41" xlink:href="#a"/>
    <linearGradient id="n" x1="234.84" y1="-206.66" x2="339.54" y2="-228.41" xlink:href="#a"/>
    <linearGradient id="o" x1="231.66" y1="-221.88" x2="336.38" y2="-243.63" xlink:href="#a"/>
    <linearGradient id="p" x1="247.62" y1="-145.09" x2="352.34" y2="-166.84" xlink:href="#a"/>
    <linearGradient id="q" x1="242.77" y1="-168.5" x2="347.47" y2="-190.25" xlink:href="#a"/>
    <linearGradient id="r" x1="238.51" y1="-189" x2="343.21" y2="-210.75" xlink:href="#a"/>
    <linearGradient id="s" x1="234.74" y1="-207.08" x2="339.46" y2="-228.84" xlink:href="#a"/>
    <linearGradient id="t" x1="231.39" y1="-223.18" x2="336.11" y2="-244.94" xlink:href="#a"/>
    <linearGradient id="u" x1="248.52" y1="-140.77" x2="353.23" y2="-162.53" xlink:href="#a"/>
    <linearGradient id="v" x1="243.27" y1="-166.1" x2="347.97" y2="-187.86" xlink:href="#a"/>
    <linearGradient id="w" x1="238.69" y1="-188.12" x2="343.39" y2="-209.88" xlink:href="#a"/>
    <linearGradient id="x" x1="234.66" y1="-207.45" x2="339.38" y2="-229.21" xlink:href="#a"/>
    <linearGradient id="y" x1="231.11" y1="-224.55" x2="335.83" y2="-246.31" xlink:href="#a"/>
  </defs>
  <g>
    <g>
      <path class="a" d="M346.5,15.2a40.1,40.1,0,1,0,40.1,40.1A40.1,40.1,0,0,0,346.5,15.2Zm0,66.9a26.9,26.9,0,1,1,26.9-26.8A26.9,26.9,0,0,1,346.5,82.1Z"/>
      <path class="a" d="M561,54.2h0A38.8,38.8,0,0,0,557.6,39h0l-.8-1.7h-.1c-.3-.5-.5-1.1-.8-1.6a.1.1,0,0,1-.1-.1l-.9-1.5c0-.1-.1-.1-.1-.2l-.9-1.4-.2-.2a11.3,11.3,0,0,0-1-1.3v-.2l-1-1.3-.3-.3-1-1.1-.3-.3a4.7,4.7,0,0,0-1-1l-.4-.4-1-.9-.4-.4-1-.9-.6-.4-.9-.7-.6-.5-.9-.6-.8-.5-.9-.5-.8-.5-.8-.5-.9-.4-.8-.4-1-.5-.8-.3-1.1-.5-.7-.2-1.2-.4-.6-.3-1.3-.3-.6-.2-1.3-.3H529l-1.5-.3H527l-1.5-.2H525l-1.7-.2h-2.4a40.1,40.1,0,1,0,0,80.2h6.4l1.3-.3h.6l1.6-.4h.3a40.6,40.6,0,0,0,21.2-13.8c0-.1.1-.1.1-.2h.1l.2-.3a6.8,6.8,0,0,0,1.2-3.7,6.6,6.6,0,0,0-11.8-4.1H542a26.6,26.6,0,0,1-14.3,9.4h-.1l-1.1.3h-.4l-.9.2h-6.7l-2-.2h-.3l-2.1-.4h0l-2-.6h-.2l-1.9-.8h-.2l-1.8-.9h-.1a27.1,27.1,0,0,1-3.5-2.4c-.1,0-.1,0-.1-.1a25,25,0,0,1-4.6-4.6h0A26.1,26.1,0,0,1,494,55.3a27,27,0,0,1,5.7-16.5h0a25,25,0,0,1,4.6-4.6h0a37.5,37.5,0,0,1,3.6-2.4h.1l1.8-.9h.2l1.9-.8h.2l2-.7h0l2.1-.4h.3l2-.2h4.9l2,.2h.4l1.9.4h.2l1.7.5h.4l1.7.7.5.2,1.6.9h.3l1.5.9.3.2,1.5,1.1.3.3,1.4,1.2.3.3,1.2,1.1.2.3,1.2,1.4.3.4a7.1,7.1,0,0,1,1,1.4l.3.4.9,1.5c0,.1.1.2.2.3l.7,1.5a1.7,1.7,0,0,1,.2.5,12.2,12.2,0,0,1,.7,1.7c0,.2.1.3.2.5a8.4,8.4,0,0,0,.5,1.7v.2H514.1a6.6,6.6,0,0,0,0,13.2h40.3a6.6,6.6,0,0,0,6.6-6.6V54.2Z"/>
      <path class="a" d="M433.7,15.1a40.2,40.2,0,0,0-40.1,40.1V88.8h0a6.6,6.6,0,0,0,13.2,0h0V55.2a26.9,26.9,0,0,1,53.8,0V88.8h0a6.6,6.6,0,0,0,13.2,0h0V55.2A40.2,40.2,0,0,0,433.7,15.1Z"/>
      <path class="a" d="M290.4,56.4l-18.7-13a7.8,7.8,0,0,1-3.3-5.3,8.3,8.3,0,0,1,1.3-6.1,8.2,8.2,0,0,1,11.4-2l8,5.5a6.6,6.6,0,0,0,7.6-10.8l-8-5.6a21.4,21.4,0,0,0-33.4,21.3,21,21,0,0,0,8.9,13.8l18.6,13a8.5,8.5,0,0,1,3.4,5.3,8.2,8.2,0,0,1-1.3,6.1,8.3,8.3,0,0,1-6.9,3.5H254.3a8,8,0,0,1-6.8-3.5,8.6,8.6,0,0,1-1.5-4.4h0v-19a40.1,40.1,0,1,0-40.1,40.2H213a6.6,6.6,0,0,0,0-13.2h-7.1a26.9,26.9,0,1,1,26.9-26.9v19a20.8,20.8,0,0,0,3.8,12,21.9,21.9,0,0,0,17.5,9.2h24a21.4,21.4,0,0,0,21.1-25.2A20.8,20.8,0,0,0,290.4,56.4Z"/>
    </g>
    <g>
      <g>
        <path class="b" d="M5.6,90.1c-2.2.1-4.6,2.8-5.4,6s.5,5.8,2.8,5.8,4.8-2.8,5.5-6.1S7.9,90,5.6,90.1Z"/>
        <path class="c" d="M10.2,70.1C8,70.4,5.7,72.8,5,75.7s.5,5.1,2.8,4.9,4.6-2.9,5.2-5.8-.7-5-2.8-4.7Z"/>
        <path class="d" d="M14.3,52.1c-2.1.4-4.3,2.8-4.9,5.4s.6,4.4,2.7,4.1,4.4-2.9,5-5.6-.7-4.3-2.8-3.9Z"/>
        <path class="e" d="M18.1,35.9c-2.1.5-4.1,2.8-4.7,5.1s.6,3.9,2.7,3.4,4.2-2.9,4.8-5.2-.8-3.8-2.8-3.3Z"/>
        <path class="f" d="M21.5,21.2a7.5,7.5,0,0,0-4.4,4.9c-.5,2.1.6,3.4,2.6,2.9a7.6,7.6,0,0,0,4.6-5.1c.5-2.1-.8-3.3-2.8-2.7Z"/>
        <path class="g" d="M21.7,88.9c-2.7.1-5.4,3.1-6.1,6.7s.9,6.7,3.7,6.6S25,99,25.6,95.3s-1.2-6.6-3.9-6.4Z"/>
        <path class="h" d="M25.6,67.7c-2.6.3-5.2,3.1-5.8,6.3s.9,5.8,3.6,5.5,5.4-3.2,6-6.5-1.2-5.6-3.8-5.3Z"/>
        <path class="i" d="M29.1,48.8c-2.5.5-4.9,3.2-5.5,6.1s1,4.9,3.5,4.5,5.2-3.2,5.7-6.2-1.2-4.9-3.7-4.4Z"/>
        <path class="j" d="M32.4,32a8.1,8.1,0,0,0-5.3,5.6c-.5,2.6,1,4.4,3.4,3.8a7.6,7.6,0,0,0,5.4-5.9c.5-2.6-1.1-4.2-3.5-3.5Z"/>
        <path class="k" d="M35.3,16.7a7.9,7.9,0,0,0-5,5.4c-.5,2.4,1,3.8,3.4,3.2a8.2,8.2,0,0,0,5.1-5.6c.5-2.4-1.1-3.7-3.5-3Z"/>
        <path class="l" d="M39.9,87.5c-3.3.2-6.3,3.5-6.9,7.6s1.5,7.5,4.9,7.5,6.7-3.6,7.2-7.9-1.9-7.4-5.2-7.2Z"/>
        <path class="m" d="M43,65.1c-3.2.4-6,3.5-6.6,7.1s1.5,6.4,4.7,6.2S47.5,74.7,48,71s-1.9-6.3-5-5.9Z"/>
        <path class="n" d="M45.7,45.3A8.5,8.5,0,0,0,39.5,52c-.5,3.2,1.5,5.5,4.6,5a8.3,8.3,0,0,0,6.4-6.9c.4-3.3-1.8-5.4-4.8-4.8Z"/>
        <path class="o" d="M48.3,27.6A8.2,8.2,0,0,0,42.4,34c-.5,2.8,1.4,4.8,4.4,4.1a8.6,8.6,0,0,0,6.1-6.6c.4-2.9-1.8-4.6-4.6-3.9Z"/>
        <path class="p" d="M50.6,11.8A8.4,8.4,0,0,0,45,17.9c-.4,2.5,1.4,4.1,4.2,3.3s5.5-3.6,5.8-6.3-1.6-4-4.4-3.1Z"/>
        <path class="q" d="M60.7,85.9c-3.9.3-7.4,4-7.8,8.6s2.3,8.5,6.5,8.5,7.9-4.1,8.2-8.9-2.9-8.4-6.9-8.2Z"/>
        <path class="r" d="M62.7,62.2a9.1,9.1,0,0,0-7.4,8c-.4,4,2.3,7.2,6.2,6.9s7.5-4.2,7.7-8.4-2.7-7-6.5-6.5Z"/>
        <path class="s" d="M64.5,41.3a9.1,9.1,0,0,0-7,7.6c-.4,3.5,2.2,6.1,5.9,5.5a8.9,8.9,0,0,0,7.3-7.8c.2-3.7-2.6-6-6.2-5.3Z"/>
        <path class="t" d="M66.2,22.9A9,9,0,0,0,59.5,30c-.3,3.1,2.1,5.2,5.6,4.5s6.7-4.2,6.9-7.4-2.4-5.1-5.8-4.2Z"/>
        <path class="u" d="M67.7,6.4c-3.2.9-6,3.9-6.3,6.7s2,4.5,5.3,3.6,6.4-4.1,6.6-7-2.4-4.3-5.6-3.3Z"/>
        <path class="v" d="M84.8,84.2a10,10,0,0,0-9,9.7c-.2,5.1,3.5,9.5,8.6,9.5s9.5-4.6,9.5-10a8.9,8.9,0,0,0-9.1-9.2Z"/>
        <path class="w" d="M85.4,59a9.8,9.8,0,0,0-8.5,9A7.2,7.2,0,0,0,85,75.6a9.7,9.7,0,0,0,8.9-9.3A7.3,7.3,0,0,0,85.4,59Z"/>
        <path class="x" d="M85.9,37c-4.3.8-7.8,4.5-7.9,8.4s3.1,6.8,7.6,6.1,8.3-4.7,8.3-8.7-3.7-6.6-8-5.8Z"/>
        <path class="y" d="M86.4,17.6c-4.1,1-7.3,4.4-7.5,7.9s3,5.8,7.2,4.9,7.8-4.7,7.8-8.3-3.4-5.5-7.5-4.5Z"/>
        <path class="z" d="M86.8.4c-3.8,1.1-6.9,4.4-7,7.5s2.8,4.9,6.8,3.9,7.3-4.7,7.3-7.9S90.7-.8,86.8.4Z"/>
      </g>
      <g>
        <path class="aa" d="M133.5,85.9c4,.3,7.4,4,7.9,8.6s-2.4,8.5-6.6,8.5-7.9-4.1-8.2-8.9,2.9-8.4,6.9-8.2Z"/>
        <path class="aa" d="M131.5,62.2a9,9,0,0,1,7.4,8c.4,4-2.3,7.2-6.2,6.9s-7.4-4.2-7.7-8.4,2.7-7,6.5-6.5Z"/>
        <path class="aa" d="M129.7,41.3a8.9,8.9,0,0,1,7,7.6c.4,3.5-2.2,6.1-5.9,5.5a9,9,0,0,1-7.3-7.8c-.2-3.7,2.6-6,6.2-5.3Z"/>
        <path class="aa" d="M128,22.9c3.4.8,6.4,3.9,6.7,7.1s-2.1,5.2-5.6,4.5-6.7-4.2-6.9-7.4,2.5-5.1,5.8-4.2Z"/>
        <path class="aa" d="M126.5,6.4c3.3.9,6,3.9,6.4,6.7s-2.1,4.5-5.4,3.6-6.3-4.1-6.6-7,2.4-4.3,5.6-3.3Z"/>
        <path class="aa" d="M109.4,84.2a9.9,9.9,0,0,1,9,9.7c.2,5.1-3.5,9.5-8.6,9.5s-9.5-4.6-9.5-10a8.9,8.9,0,0,1,9.1-9.2Z"/>
        <path class="aa" d="M108.8,59a9.8,9.8,0,0,1,8.5,9,7.2,7.2,0,0,1-8.1,7.6,9.7,9.7,0,0,1-8.9-9.3,7.3,7.3,0,0,1,8.5-7.3Z"/>
        <path class="aa" d="M108.3,37c4.3.8,7.8,4.5,8,8.4s-3.2,6.8-7.7,6.1-8.3-4.7-8.3-8.7,3.7-6.6,8-5.8Z"/>
        <path class="aa" d="M107.8,17.6c4.1,1,7.4,4.4,7.5,7.9s-2.9,5.8-7.2,4.9-7.8-4.7-7.8-8.3,3.5-5.5,7.5-4.5Z"/>
        <path class="aa" d="M107.4.4c3.8,1.1,6.9,4.4,7.1,7.5s-2.9,4.9-6.8,3.9-7.4-4.7-7.4-7.9,3.2-4.7,7.1-3.5Z"/>
      </g>
    </g>
  </g>
</svg>
