
<svg xmlns="http://www.w3.org/2000/svg" viewBox="0 0 494.7 100.46">
  <defs>
    <style>
      path {
        fill: #FFFFFF;
        stroke-width: 0px;
      }
    </style>
  </defs>
  <path d="m226.25.07c-27.68,0-50.19,22.52-50.19,50.19s22.51,50.2,50.19,50.2,50.18-22.52,50.18-50.2S253.92.07,226.25.07Zm0,83.85c-18.56,0-33.66-15.1-33.66-33.66s15.11-33.66,33.66-33.66,33.65,15.1,33.65,33.66-15.1,33.66-33.65,33.66Z"/>
  <path d="m494.69,48.96s0-.01,0-.02c-.18-6.76-1.68-13.18-4.3-19.02,0-.02,0-.02,0-.04-.32-.72-.66-1.42-1.01-2.11,0-.03-.02-.05-.03-.08-.35-.68-.71-1.36-1.09-2.02-.02-.04-.05-.08-.07-.12-.36-.65-.75-1.28-1.15-1.91-.04-.06-.07-.12-.11-.18-.38-.6-.78-1.2-1.18-1.78-.06-.08-.12-.17-.18-.25-.39-.56-.8-1.11-1.23-1.67-.07-.1-.15-.19-.23-.29-.41-.52-.81-1.04-1.24-1.54-.1-.12-.21-.24-.3-.36-.41-.47-.83-.94-1.25-1.4-.13-.14-.26-.27-.39-.41-.41-.44-.83-.87-1.26-1.28-.16-.15-.32-.3-.48-.46-.41-.39-.82-.77-1.24-1.15-.19-.17-.38-.33-.57-.5-.41-.35-.81-.7-1.22-1.03-.23-.18-.46-.36-.69-.54-.38-.31-.78-.62-1.18-.92-.27-.19-.53-.38-.79-.57-.39-.27-.76-.54-1.16-.8-.29-.2-.6-.39-.9-.58-.36-.23-.73-.47-1.1-.7-.33-.2-.68-.39-1.02-.59-.35-.2-.69-.41-1.06-.6-.36-.2-.74-.39-1.12-.58-.34-.16-.67-.34-1.01-.5-.41-.2-.83-.39-1.25-.57-.31-.14-.62-.28-.94-.42-.45-.19-.91-.36-1.37-.54-.3-.12-.59-.24-.9-.35-.48-.17-.97-.33-1.47-.5-.27-.09-.55-.19-.83-.28-.53-.16-1.05-.31-1.58-.45-.26-.07-.52-.15-.79-.22-.55-.14-1.1-.27-1.66-.39-.25-.05-.49-.11-.75-.16-.59-.13-1.18-.23-1.79-.33-.22-.04-.43-.08-.65-.11-.63-.1-1.28-.17-1.93-.24-.19-.02-.38-.05-.57-.07-.71-.07-1.43-.12-2.14-.16-.12,0-.26-.02-.4-.03-.85-.04-1.7-.06-2.56-.06h0c-27.68,0-50.19,22.52-50.19,50.19s22.51,50.2,50.19,50.2h0s.05,0,.07,0c.89,0,1.77-.02,2.65-.07.37-.02.74-.05,1.11-.09.51-.04,1.03-.08,1.54-.13.49-.05.96-.12,1.43-.18.38-.05.77-.1,1.15-.16.56-.09,1.12-.19,1.67-.3.26-.05.53-.1.79-.15.66-.14,1.3-.29,1.94-.45.12-.03.24-.06.36-.1,10.41-2.7,19.72-8.69,26.52-17.24.06-.07.12-.15.18-.22.02-.03.03-.04.04-.06,0,0,0-.01,0-.01.11-.15.2-.31.3-.46.9-1.32,1.46-2.9,1.46-4.62,0-4.57-3.7-8.27-8.27-8.27-2.65,0-5,1.25-6.52,3.19,0,0-.02,0-.03.01-4.58,5.82-10.88,9.88-17.94,11.7-.06,0-.1.02-.15.04-.44.12-.89.22-1.35.32-.17.03-.32.07-.47.09-.39.07-.77.14-1.17.21-.24.04-.49.07-.73.1-.33.05-.66.09-1,.13-.32.03-.66.06-1,.08-.27.02-.51.05-.77.06-.59.03-1.17.05-1.76.06h-.07c-.89,0-1.77-.04-2.65-.11-.14-.01-.28-.02-.43-.03-.84-.08-1.67-.19-2.5-.33-.14-.02-.27-.05-.4-.07-.86-.16-1.71-.33-2.53-.55-.02,0-.04-.01-.04-.01-.85-.22-1.68-.49-2.5-.77-.07-.02-.15-.04-.22-.07-.8-.3-1.59-.61-2.37-.95-.1-.04-.19-.08-.27-.12-.8-.37-1.58-.75-2.33-1.16,0,0-.02-.01-.02-.01-1.57-.88-3.07-1.88-4.48-2.99-.04-.03-.09-.07-.13-.1-2.12-1.68-4.03-3.61-5.7-5.75,0,0-.02-.02-.03-.03-4.42-5.69-7.07-12.84-7.07-20.61s2.65-14.91,7.08-20.61t0-.01c1.67-2.14,3.58-4.07,5.71-5.76.04-.03.08-.06.12-.1,1.42-1.11,2.92-2.11,4.49-2.99.01,0,.02,0,.02,0,.75-.42,1.54-.81,2.33-1.17.08-.04.17-.08.27-.12.78-.35,1.57-.67,2.38-.96.07-.02.14-.05.22-.07.82-.29,1.65-.54,2.51-.77,0,0,.03-.01.04-.02.82-.22,1.67-.39,2.53-.54.13-.02.26-.05.4-.07.82-.13,1.65-.25,2.51-.32.14-.01.28-.02.42-.03.88-.07,1.77-.11,2.65-.11h0c.89,0,1.75.04,2.61.11.17.01.33.02.48.04.82.07,1.63.18,2.43.31.18.04.36.06.53.1.81.14,1.62.31,2.39.52.1.03.19.05.29.08.73.2,1.46.43,2.16.67.15.05.31.1.46.16.73.26,1.45.56,2.16.87.18.08.36.16.53.23.71.33,1.39.68,2.08,1.04.14.07.26.15.39.23.62.35,1.21.72,1.8,1.1.14.09.26.16.38.25.63.43,1.25.88,1.85,1.34.16.13.32.25.49.38.58.47,1.15.96,1.71,1.47.14.13.27.25.4.38.5.48.99.97,1.47,1.48.09.1.18.19.26.28.5.56,1,1.15,1.47,1.74.13.17.26.33.4.5.44.59.87,1.19,1.29,1.81.12.18.22.35.33.53.38.6.75,1.2,1.1,1.83.08.15.16.29.22.43.33.61.64,1.25.94,1.89.08.2.18.4.27.6.29.67.56,1.37.82,2.06.08.22.15.44.22.67.24.71.46,1.43.65,2.17,0,.04.02.09.03.13h0s-41.18,0-41.18,0h0c-4.56,0-8.27,3.7-8.27,8.27s3.71,8.27,8.27,8.27h43.86s6.62,0,6.62,0h0c4.57,0,8.26-3.7,8.26-8.27v-1.26s-.02-.03-.02-.04Z"/>
  <path d="m335.38,0c-27.68,0-50.19,22.52-50.19,50.2v41.99h0c0,4.57,3.7,8.27,8.26,8.27s8.28-3.7,8.28-8.27h0v-41.99c0-18.56,15.1-33.66,33.66-33.66s33.66,15.1,33.66,33.66v41.99h0c0,4.57,3.7,8.27,8.27,8.27s8.27-3.7,8.27-8.27h0v-41.99c0-27.68-22.53-50.2-50.2-50.2Z"/>
  <path d="m155.95,51.66l-23.32-16.25c-2.26-1.57-3.76-3.91-4.24-6.6-.49-2.7.11-5.41,1.68-7.66,3.23-4.64,9.63-5.79,14.28-2.55l10.03,6.99c3.76,2.61,8.92,1.69,11.54-2.06,2.6-3.75,1.69-8.91-2.07-11.52l-10.04-6.99c-12.14-8.45-28.88-5.46-37.33,6.67-4.09,5.88-5.66,13-4.38,20.05,1.25,7.05,5.19,13.19,11.06,17.28l23.33,16.24c2.24,1.56,3.74,3.91,4.23,6.6.48,2.7-.12,5.42-1.67,7.67-2.02,2.9-5.28,4.43-8.56,4.39v.11h-29.67v-.11c-3.29.04-6.54-1.49-8.56-4.39-1.15-1.66-1.77-3.56-1.83-5.54h-.02v-23.75C100.36,22.57,77.85.07,50.19.07S0,22.59,0,50.26s22.51,50.2,50.19,50.2h8.85c4.56,0,8.27-3.7,8.27-8.27s-3.71-8.26-8.27-8.26h-8.85c-18.57,0-33.66-15.1-33.66-33.67S31.62,16.6,50.19,16.6s33.64,15.08,33.65,33.63v23.75c.06,5.34,1.69,10.54,4.81,15,5.18,7.44,13.48,11.44,21.92,11.48h0s29.89,0,29.89,0h0s.07,0,.11,0c8.49,0,16.84-4.01,22.04-11.48,4.1-5.87,5.66-12.99,4.39-20.04-1.25-7.05-5.19-13.19-11.07-17.28Z"/>
</svg>