
<svg xmlns="http://www.w3.org/2000/svg" xmlns:xlink="http://www.w3.org/1999/xlink" viewBox="0 0 490.4 358.72">
  <defs>
    <style>
      .cls-1 {
        clip-path: url(#clippath-20);
      }

      .cls-2 {
        clip-path: url(#clippath-11);
      }

      .cls-3 {
        clip-path: url(#clippath-16);
      }

      .cls-4 {
        stroke-width: 0px;
      }

      .cls-4, .cls-5 {
        fill: #231815;
      }

      .cls-6 {
        clip-path: url(#clippath-2);
      }

      .cls-7 {
        clip-path: url(#clippath-13);
      }

      .cls-8 {
        clip-path: url(#clippath-15);
      }

      .cls-9 {
        clip-path: url(#clippath-6);
      }

      .cls-10 {
        clip-path: url(#clippath-7);
      }

      .cls-11 {
        clip-path: url(#clippath-21);
      }

      .cls-12 {
        clip-path: url(#clippath-1);
      }

      .cls-13 {
        clip-path: url(#clippath-4);
      }

      .cls-14 {
        clip-path: url(#clippath-12);
      }

      .cls-15 {
        clip-path: url(#clippath-24);
      }

      .cls-16 {
        clip-path: url(#clippath-22);
      }

      .cls-17 {
        clip-path: url(#clippath-9);
      }

      .cls-18 {
        clip-path: url(#clippath);
      }

      .cls-19 {
        clip-path: url(#clippath-19);
      }

      .cls-20 {
        clip-path: url(#clippath-3);
      }

      .cls-21 {
        clip-path: url(#clippath-8);
      }

      .cls-22 {
        clip-path: url(#clippath-18);
      }

      .cls-23 {
        clip-path: url(#clippath-14);
      }

      .cls-24 {
        clip-path: url(#clippath-17);
      }

      .cls-25 {
        clip-path: url(#clippath-5);
      }

      .cls-26 {
        clip-path: url(#clippath-10);
      }

      .cls-27 {
        clip-path: url(#clippath-23);
      }
    </style>
    <clipPath id="clippath">
      <path class="cls-4" d="m19.49,312.45c-7.87.43-16.11,9.58-18.72,20.67-2.59,11.1,1.54,20.39,9.57,20.36,8.03-.04,16.84-9.78,19.26-21.24,2.44-11.48-2.26-20.2-10.12-19.79h0Z"/>
    </clipPath>
    <clipPath id="clippath-1">
      <path class="cls-4" d="m35.2,242.96c-7.58,1.02-15.39,9.67-17.75,19.6-2.36,9.93,1.73,17.68,9.45,16.97,7.72-.72,16.1-9.93,18.3-20.14,2.21-10.22-2.43-17.46-10-16.43h0Z"/>
    </clipPath>
    <clipPath id="clippath-2">
      <path class="cls-4" d="m49.55,180.67c-7.32,1.47-14.76,9.7-16.91,18.65-2.16,8.93,1.92,15.4,9.35,14.15,7.43-1.24,15.4-9.97,17.41-19.12,2.02-9.14-2.54-15.17-9.84-13.68h0Z"/>
    </clipPath>
    <clipPath id="clippath-3">
      <path class="cls-4" d="m62.68,124.47c-7.05,1.85-14.19,9.62-16.17,17.68-1.97,8.07,2.03,13.6,9.2,11.96,7.18-1.64,14.82-10.04,16.67-18.29,1.84-8.23-2.64-13.18-9.69-11.36h0Z"/>
    </clipPath>
    <clipPath id="clippath-4">
      <path class="cls-4" d="m74.7,73.47c-6.81,2.11-13.67,9.63-15.47,16.95-1.82,7.32,2.15,11.99,9.1,10,6.95-1.97,14.2-9.96,15.89-17.43,1.68-7.45-2.72-11.65-9.52-9.53h0Z"/>
    </clipPath>
    <clipPath id="clippath-5">
      <path class="cls-4" d="m75.24,308.12c-9.49.54-18.75,10.86-21.17,23.38-2.4,12.52,3.08,23.09,12.8,23.07,9.71-.02,19.77-11.15,21.93-24.14,2.17-12.97-4.07-22.84-13.56-22.3h0Z"/>
    </clipPath>
    <clipPath id="clippath-6">
      <path class="cls-4" d="m88.73,234.77c-9.06,1.18-17.9,10.86-20.08,21.98-2.19,11.12,3.2,19.9,12.49,19.06,9.29-.83,18.78-11.24,20.74-22.74,1.97-11.47-4.08-19.49-13.15-18.3h0Z"/>
    </clipPath>
    <clipPath id="clippath-7">
      <path class="cls-4" d="m101.03,169.37c-8.7,1.74-17.1,10.93-19.1,20.88-2,9.94,3.26,17.15,12.18,15.71,8.91-1.45,17.87-11.23,19.66-21.45,1.8-10.23-4.05-16.86-12.74-15.13h0Z"/>
    </clipPath>
    <clipPath id="clippath-8">
      <path class="cls-4" d="m112.23,110.81c-8.37,2.14-16.34,10.81-18.17,19.74-1.82,8.93,3.31,15.02,11.87,13.09,8.55-1.91,17.07-11.28,18.71-20.41,1.64-9.15-4.05-14.56-12.42-12.42h0Z"/>
    </clipPath>
    <clipPath id="clippath-9">
      <path class="cls-4" d="m122.57,57.93c-8.08,2.48-15.73,10.83-17.41,18.88-1.68,8.07,3.35,13.1,11.58,10.8,8.21-2.31,16.35-11.21,17.88-19.44,1.52-8.22-4-12.73-12.06-10.24h0Z"/>
    </clipPath>
    <clipPath id="clippath-10">
      <path class="cls-4" d="m138.42,303.39c-11.45.62-21.98,12.17-24.07,26.3-2.07,14.12,5.33,26.12,17.12,26.09,11.8-.02,23.25-12.61,24.99-27.32,1.73-14.69-6.61-25.71-18.04-25.07h0Z"/>
    </clipPath>
    <clipPath id="clippath-11">
      <path class="cls-4" d="m149.01,225.65c-10.89,1.39-20.85,12.33-22.74,24.76-1.89,12.44,5.23,22.26,16.43,21.31,11.2-.96,22.04-12.72,23.6-25.62,1.56-12.91-6.42-21.85-17.29-20.46h0Z"/>
    </clipPath>
    <clipPath id="clippath-12">
      <path class="cls-4" d="m158.64,156.98c-10.36,2.02-19.8,12.3-21.55,23.34-1.73,11.05,5.12,19.1,15.79,17.43,10.67-1.67,20.89-12.73,22.34-24.13,1.42-11.42-6.24-18.66-16.59-16.64h0Z"/>
    </clipPath>
    <clipPath id="clippath-13">
      <path class="cls-4" d="m167.46,95.78c-9.91,2.48-18.91,12.18-20.49,22.07-1.57,9.9,5.05,16.54,15.22,14.34,10.18-2.21,19.89-12.74,21.18-22.91,1.3-10.17-6-16.01-15.91-13.5h0Z"/>
    </clipPath>
    <clipPath id="clippath-14">
      <path class="cls-4" d="m175.56,40.85c-9.48,2.88-18.06,12.22-19.51,21.07-1.44,8.84,4.94,14.34,14.66,11.65,9.73-2.67,18.96-12.66,20.16-21.74,1.21-9.08-5.84-13.87-15.31-10.99h0Z"/>
    </clipPath>
    <clipPath id="clippath-15">
      <path class="cls-4" d="m210.66,298.01c-13.85.76-25.8,13.75-27.37,29.67-1.58,15.93,8.24,29.48,22.61,29.47,14.36-.01,27.62-14.23,28.65-30.87,1.02-16.64-10.02-29.02-23.89-28.27h0Z"/>
    </clipPath>
    <clipPath id="clippath-16">
      <path class="cls-4" d="m217.54,215.69c-13.08,1.64-24.42,13.82-25.82,27.73-1.41,13.9,7.93,24.92,21.49,23.83,13.56-1.08,25.96-14.36,26.92-28.85.95-14.49-9.51-24.35-22.59-22.71h0Z"/>
    </clipPath>
    <clipPath id="clippath-17">
      <path class="cls-4" d="m223.75,143.32c-12.38,2.37-23.09,13.85-24.37,26.14-1.29,12.28,7.59,21.17,20.44,19.26,12.84-1.92,24.52-14.37,25.37-27.1.85-12.71-9.04-20.66-21.43-18.29h0Z"/>
    </clipPath>
    <clipPath id="clippath-18">
      <path class="cls-4" d="m229.48,79.26c-11.75,2.92-21.93,13.71-23.1,24.63-1.17,10.91,7.33,18.22,19.48,15.63,12.16-2.59,23.22-14.39,24-25.65.77-11.27-8.62-17.52-20.38-14.61h0Z"/>
    </clipPath>
    <clipPath id="clippath-19">
      <path class="cls-4" d="m234.7,22.09c-11.18,3.37-20.82,13.68-21.9,23.42-1.09,9.74,7.03,15.62,18.58,12.52,11.54-3.08,22.01-14.25,22.71-24.25.72-10.01-8.19-15.06-19.39-11.69h0Z"/>
    </clipPath>
    <clipPath id="clippath-20">
      <path class="cls-4" d="m294.23,292.16c-16.97.89-30.58,15.44-31.34,33.36-.78,17.92,12.15,33.2,29.9,33.2s32.89-16.06,32.89-34.87-14.47-32.58-31.44-31.7h0Z"/>
    </clipPath>
    <clipPath id="clippath-21">
      <path class="cls-4" d="m296.2,204.59c-15.91,1.94-28.71,15.53-29.4,31.08-.69,15.57,11.47,27.93,28.08,26.67,16.61-1.26,30.79-16.25,30.79-32.5s-13.56-27.19-29.48-25.24h0Z"/>
    </clipPath>
    <clipPath id="clippath-22">
      <path class="cls-4" d="m298,128.22c-14.97,2.79-26.99,15.54-27.63,29.18-.64,13.65,10.83,23.52,26.43,21.27,15.58-2.25,28.88-16.2,28.88-30.4s-12.73-22.84-27.68-20.05h0Z"/>
    </clipPath>
    <clipPath id="clippath-23">
      <path class="cls-4" d="m299.62,60.98c-14.06,3.43-25.43,15.44-26.01,27.49-.58,12.03,10.27,20,24.92,17.01,14.65-2.99,27.14-16.26,27.14-28.74s-11.96-19.18-26.05-15.75h0Z"/>
    </clipPath>
    <clipPath id="clippath-24">
      <path class="cls-4" d="m301.17,1.3c-13.28,3.96-24.07,15.44-24.6,26.14-.54,10.69,9.78,16.96,23.6,13.35,13.8-3.6,25.51-16.04,25.51-27.11s-11.23-16.33-24.51-12.38h0Z"/>
    </clipPath>
  </defs>
  <g>
    <g>
      <path class="cls-5" d="m19.49,312.45c-7.87.43-16.11,9.58-18.72,20.67-2.59,11.1,1.54,20.39,9.57,20.36,8.03-.04,16.84-9.78,19.26-21.24,2.44-11.48-2.26-20.2-10.12-19.79h0Z"/>
      <g class="cls-18">
        <polygon class="cls-4" points="-1.82 334.46 2.14 353.51 -.23 353.51 -1.82 345.85 -1.82 334.46"/>
        <polygon class="cls-4" points="-1.82 323.06 4.5 353.51 2.14 353.51 -1.82 334.46 -1.82 323.06"/>
        <polygon class="cls-4" points="-1.82 312.64 -1.63 312.6 6.87 353.51 4.5 353.51 -1.82 323.06 -1.82 312.64"/>
        <polygon class="cls-4" points="-1.63 312.6 .64 312.13 9.24 353.51 6.87 353.51 -1.63 312.6"/>
        <polygon class="cls-4" points=".64 312.13 1.1 312.03 2.99 312.03 11.61 353.51 9.24 353.51 .64 312.13"/>
        <polygon class="cls-4" points="5.36 312.03 13.98 353.51 11.61 353.51 2.99 312.03 5.36 312.03"/>
        <polygon class="cls-4" points="7.72 312.03 16.34 353.51 13.98 353.51 5.36 312.03 7.72 312.03"/>
        <polygon class="cls-4" points="10.09 312.03 18.71 353.51 16.34 353.51 7.72 312.03 10.09 312.03"/>
        <polygon class="cls-4" points="12.46 312.03 21.08 353.51 18.71 353.51 10.09 312.03 12.46 312.03"/>
        <polygon class="cls-4" points="14.83 312.03 23.45 353.51 21.08 353.51 12.46 312.03 14.83 312.03"/>
        <polygon class="cls-4" points="17.19 312.03 25.81 353.51 23.45 353.51 14.83 312.03 17.19 312.03"/>
        <polygon class="cls-4" points="19.56 312.03 28.18 353.51 25.81 353.51 17.19 312.03 19.56 312.03"/>
        <polygon class="cls-4" points="21.93 312.03 30.55 353.51 28.18 353.51 19.56 312.03 21.93 312.03"/>
        <polygon class="cls-4" points="24.3 312.03 32.04 349.3 32.04 353.51 30.55 353.51 21.93 312.03 24.3 312.03"/>
        <polygon class="cls-4" points="26.67 312.03 32.04 337.9 32.04 349.3 24.3 312.03 26.67 312.03"/>
        <polygon class="cls-4" points="29.03 312.03 32.04 326.51 32.04 337.9 26.67 312.03 29.03 312.03"/>
        <polygon class="cls-4" points="31.4 312.03 32.04 315.11 32.04 326.51 29.03 312.03 31.4 312.03"/>
        <polygon class="cls-4" points="32.04 315.11 31.4 312.03 32.04 312.03 32.04 315.11"/>
      </g>
    </g>
    <g>
      <path class="cls-5" d="m35.2,242.96c-7.58,1.02-15.39,9.67-17.75,19.6-2.36,9.93,1.73,17.68,9.45,16.97,7.72-.72,16.1-9.93,18.3-20.14,2.21-10.22-2.43-17.46-10-16.43h0Z"/>
      <g class="cls-12">
        <polygon class="cls-4" points="15.1 279.12 15.33 280.25 15.1 280.25 15.1 279.12"/>
        <polygon class="cls-4" points="15.1 267.72 17.7 280.25 15.33 280.25 15.1 279.12 15.1 267.72"/>
        <polygon class="cls-4" points="15.1 256.33 20.07 280.25 17.7 280.25 15.1 267.72 15.1 256.33"/>
        <polygon class="cls-4" points="15.1 244.93 22.43 280.25 20.07 280.25 15.1 256.33 15.1 244.93"/>
        <polygon class="cls-4" points="15.1 243.55 17.09 243.14 24.8 280.25 22.43 280.25 15.1 244.93 15.1 243.55"/>
        <polygon class="cls-4" points="17.09 243.14 19.36 242.67 27.17 280.25 24.8 280.25 17.09 243.14"/>
        <polygon class="cls-4" points="19.36 242.67 21.63 242.19 29.54 280.25 27.17 280.25 19.36 242.67"/>
        <polygon class="cls-4" points="21.63 242.19 22.88 241.93 23.94 241.93 31.9 280.25 29.54 280.25 21.63 242.19"/>
        <polygon class="cls-4" points="26.31 241.93 34.27 280.25 31.9 280.25 23.94 241.93 26.31 241.93"/>
        <polygon class="cls-4" points="28.68 241.93 36.64 280.25 34.27 280.25 26.31 241.93 28.68 241.93"/>
        <polygon class="cls-4" points="31.05 241.93 39.01 280.25 36.64 280.25 28.68 241.93 31.05 241.93"/>
        <polygon class="cls-4" points="33.41 241.93 41.38 280.25 39.01 280.25 31.05 241.93 33.41 241.93"/>
        <polygon class="cls-4" points="35.78 241.93 43.68 279.96 42.29 280.25 41.38 280.25 33.41 241.93 35.78 241.93"/>
        <polygon class="cls-4" points="38.15 241.93 45.95 279.49 43.68 279.96 35.78 241.93 38.15 241.93"/>
        <polygon class="cls-4" points="40.52 241.93 47.41 275.09 47.41 279.18 45.95 279.49 38.15 241.93 40.52 241.93"/>
        <polygon class="cls-4" points="42.89 241.93 47.41 263.7 47.41 275.09 40.52 241.93 42.89 241.93"/>
        <polygon class="cls-4" points="45.25 241.93 47.41 252.3 47.41 263.7 42.89 241.93 45.25 241.93"/>
        <polygon class="cls-4" points="47.41 252.3 45.25 241.93 47.41 241.93 47.41 252.3"/>
      </g>
    </g>
    <g>
      <path class="cls-5" d="m49.55,180.67c-7.32,1.47-14.76,9.7-16.91,18.65-2.16,8.93,1.92,15.4,9.35,14.15,7.43-1.24,15.4-9.97,17.41-19.12,2.02-9.14-2.54-15.17-9.84-13.68h0Z"/>
      <g class="cls-6">
        <polygon class="cls-4" points="30.48 205.03 32.49 214.71 30.48 214.71 30.48 205.03"/>
        <polygon class="cls-4" points="30.48 193.63 34.86 214.71 32.49 214.71 30.48 205.03 30.48 193.63"/>
        <polygon class="cls-4" points="30.48 182.24 37.23 214.71 34.86 214.71 30.48 193.63 30.48 182.24"/>
        <polygon class="cls-4" points="30.48 181.55 32.61 181.1 39.59 214.71 37.23 214.71 30.48 182.24 30.48 181.55"/>
        <polygon class="cls-4" points="32.61 181.1 34.88 180.63 41.96 214.71 39.59 214.71 32.61 181.1"/>
        <polygon class="cls-4" points="34.88 180.63 37.15 180.16 44.33 214.71 41.96 214.71 34.88 180.63"/>
        <polygon class="cls-4" points="37.15 180.16 39.42 179.69 46.7 214.71 44.33 214.71 37.15 180.16"/>
        <polygon class="cls-4" points="39.42 179.69 41.69 179.22 49.06 214.71 46.7 214.71 39.42 179.69"/>
        <polygon class="cls-4" points="41.69 179.22 41.86 179.18 44.05 179.18 51.43 214.71 49.06 214.71 41.69 179.22"/>
        <polygon class="cls-4" points="46.42 179.18 53.73 214.37 52.06 214.71 51.43 214.71 44.05 179.18 46.42 179.18"/>
        <polygon class="cls-4" points="48.79 179.18 56 213.9 53.73 214.37 46.42 179.18 48.79 179.18"/>
        <polygon class="cls-4" points="51.15 179.18 58.27 213.42 56 213.9 48.79 179.18 51.15 179.18"/>
        <polygon class="cls-4" points="53.52 179.18 60.54 212.95 58.27 213.42 51.15 179.18 53.52 179.18"/>
        <polygon class="cls-4" points="55.89 179.18 61.41 205.76 61.41 212.77 60.54 212.95 53.52 179.18 55.89 179.18"/>
        <polygon class="cls-4" points="58.26 179.18 61.41 194.36 61.41 205.76 55.89 179.18 58.26 179.18"/>
        <polygon class="cls-4" points="60.63 179.18 61.41 182.97 61.41 194.36 58.26 179.18 60.63 179.18"/>
        <polygon class="cls-4" points="61.41 182.97 60.63 179.18 61.41 179.18 61.41 182.97"/>
      </g>
    </g>
    <g>
      <path class="cls-5" d="m62.68,124.47c-7.05,1.85-14.19,9.62-16.17,17.68-1.97,8.07,2.03,13.6,9.2,11.96,7.18-1.64,14.82-10.04,16.67-18.29,1.84-8.23-2.64-13.18-9.69-11.36h0Z"/>
      <g class="cls-20">
        <polygon class="cls-4" points="44.54 147.37 46.28 155.76 44.54 155.76 44.54 147.37"/>
        <polygon class="cls-4" points="44.54 135.97 48.65 155.76 46.28 155.76 44.54 147.37 44.54 135.97"/>
        <polygon class="cls-4" points="44.54 124.85 44.59 124.83 51.02 155.76 48.65 155.76 44.54 135.97 44.54 124.85"/>
        <polygon class="cls-4" points="44.59 124.83 46.86 124.36 53.39 155.76 51.02 155.76 44.59 124.83"/>
        <polygon class="cls-4" points="46.86 124.36 49.13 123.89 55.76 155.76 53.39 155.76 46.86 124.36"/>
        <polygon class="cls-4" points="49.13 123.89 51.4 123.42 58.12 155.76 55.76 155.76 49.13 123.89"/>
        <polygon class="cls-4" points="51.4 123.42 53.67 122.95 60.49 155.76 58.12 155.76 51.4 123.42"/>
        <polygon class="cls-4" points="53.67 122.95 55.13 122.65 55.98 122.65 62.86 155.76 60.49 155.76 53.67 122.95"/>
        <polygon class="cls-4" points="58.35 122.65 65.14 155.35 63.13 155.76 62.86 155.76 55.98 122.65 58.35 122.65"/>
        <polygon class="cls-4" points="60.72 122.65 67.41 154.87 65.14 155.35 58.35 122.65 60.72 122.65"/>
        <polygon class="cls-4" points="63.08 122.65 69.68 154.4 67.41 154.87 60.72 122.65 63.08 122.65"/>
        <polygon class="cls-4" points="65.45 122.65 71.95 153.93 69.68 154.4 63.08 122.65 65.45 122.65"/>
        <polygon class="cls-4" points="67.82 122.65 74.21 153.39 74.21 153.46 71.95 153.93 65.45 122.65 67.82 122.65"/>
        <polygon class="cls-4" points="70.19 122.65 74.21 141.99 74.21 153.39 67.82 122.65 70.19 122.65"/>
        <polygon class="cls-4" points="72.56 122.65 74.21 130.6 74.21 141.99 70.19 122.65 72.56 122.65"/>
        <polygon class="cls-4" points="74.21 130.6 72.56 122.65 74.21 122.65 74.21 130.6"/>
      </g>
    </g>
    <g>
      <path class="cls-5" d="m74.7,73.47c-6.81,2.11-13.67,9.63-15.47,16.95-1.82,7.32,2.15,11.99,9.1,10,6.95-1.97,14.2-9.96,15.89-17.43,1.68-7.45-2.72-11.65-9.52-9.53h0Z"/>
      <g class="cls-13">
        <polygon class="cls-4" points="57.41 95.36 58.88 102.41 57.41 102.41 57.41 95.36"/>
        <polygon class="cls-4" points="57.41 83.96 61.24 102.41 58.88 102.41 57.41 95.36 57.41 83.96"/>
        <polygon class="cls-4" points="57.41 73.32 57.56 73.29 63.61 102.41 61.24 102.41 57.41 83.96 57.41 73.32"/>
        <polygon class="cls-4" points="57.56 73.29 59.83 72.81 65.98 102.41 63.61 102.41 57.56 73.29"/>
        <polygon class="cls-4" points="59.83 72.81 62.1 72.34 68.35 102.41 65.98 102.41 59.83 72.81"/>
        <polygon class="cls-4" points="62.1 72.34 64.37 71.87 70.71 102.41 68.35 102.41 62.1 72.34"/>
        <polygon class="cls-4" points="64.37 71.87 66.64 71.4 73.08 102.41 70.71 102.41 64.37 71.87"/>
        <polygon class="cls-4" points="66.64 71.4 66.91 71.34 69 71.34 75.45 102.41 73.08 102.41 66.64 71.4"/>
        <polygon class="cls-4" points="71.36 71.34 77.74 102.04 75.97 102.41 75.45 102.41 69 71.34 71.36 71.34"/>
        <polygon class="cls-4" points="73.73 71.34 80.01 101.57 77.74 102.04 71.36 71.34 73.73 71.34"/>
        <polygon class="cls-4" points="76.1 71.34 82.28 101.1 80.01 101.57 73.73 71.34 76.1 71.34"/>
        <polygon class="cls-4" points="78.47 71.34 84.55 100.63 82.28 101.1 76.1 71.34 78.47 71.34"/>
        <polygon class="cls-4" points="80.83 71.34 85.91 95.75 85.91 100.34 84.55 100.63 78.47 71.34 80.83 71.34"/>
        <polygon class="cls-4" points="83.2 71.34 85.91 84.35 85.91 95.75 80.83 71.34 83.2 71.34"/>
        <polygon class="cls-4" points="85.57 71.34 85.91 72.96 85.91 84.35 83.2 71.34 85.57 71.34"/>
        <polygon class="cls-4" points="85.91 72.96 85.57 71.34 85.91 71.34 85.91 72.96"/>
      </g>
    </g>
    <g>
      <path class="cls-5" d="m75.24,308.12c-9.49.54-18.75,10.86-21.17,23.38-2.4,12.52,3.08,23.09,12.8,23.07,9.71-.02,19.77-11.15,21.93-24.14,2.17-12.97-4.07-22.84-13.56-22.3h0Z"/>
      <g class="cls-25">
        <polygon class="cls-4" points="51.67 352.6 52.09 354.6 51.67 354.6 51.67 352.6"/>
        <polygon class="cls-4" points="51.67 341.2 54.45 354.6 52.09 354.6 51.67 352.6 51.67 341.2"/>
        <polygon class="cls-4" points="51.67 329.81 56.82 354.6 54.45 354.6 51.67 341.2 51.67 329.81"/>
        <polygon class="cls-4" points="51.67 318.41 59.19 354.6 56.82 354.6 51.67 329.81 51.67 318.41"/>
        <polygon class="cls-4" points="51.67 308.55 51.98 308.49 61.56 354.6 59.19 354.6 51.67 318.41 51.67 308.55"/>
        <polygon class="cls-4" points="51.98 308.49 54.25 308.02 63.93 354.6 61.56 354.6 51.98 308.49"/>
        <polygon class="cls-4" points="54.25 308.02 56.3 307.59 56.53 307.59 66.3 354.6 63.93 354.6 54.25 308.02"/>
        <polygon class="cls-4" points="58.9 307.59 68.66 354.6 66.3 354.6 56.53 307.59 58.9 307.59"/>
        <polygon class="cls-4" points="61.26 307.59 71.03 354.6 68.66 354.6 58.9 307.59 61.26 307.59"/>
        <polygon class="cls-4" points="63.63 307.59 73.4 354.6 71.03 354.6 61.26 307.59 63.63 307.59"/>
        <polygon class="cls-4" points="66 307.59 75.77 354.6 73.4 354.6 63.63 307.59 66 307.59"/>
        <polygon class="cls-4" points="68.37 307.59 78.14 354.6 75.77 354.6 66 307.59 68.37 307.59"/>
        <polygon class="cls-4" points="70.74 307.59 80.5 354.6 78.14 354.6 68.37 307.59 70.74 307.59"/>
        <polygon class="cls-4" points="73.1 307.59 82.87 354.6 80.5 354.6 70.74 307.59 73.1 307.59"/>
        <polygon class="cls-4" points="75.47 307.59 85.24 354.6 82.87 354.6 73.1 307.59 75.47 307.59"/>
        <polygon class="cls-4" points="77.84 307.59 87.61 354.6 85.24 354.6 75.47 307.59 77.84 307.59"/>
        <polygon class="cls-4" points="80.21 307.59 89.98 354.6 87.61 354.6 77.84 307.59 80.21 307.59"/>
        <polygon class="cls-4" points="82.58 307.59 90.97 347.99 90.97 354.59 90.94 354.6 89.98 354.6 80.21 307.59 82.58 307.59"/>
        <polygon class="cls-4" points="84.95 307.59 90.97 336.59 90.97 347.99 82.58 307.59 84.95 307.59"/>
        <polygon class="cls-4" points="87.31 307.59 90.97 325.19 90.97 336.59 84.95 307.59 87.31 307.59"/>
        <polygon class="cls-4" points="89.68 307.59 90.97 313.8 90.97 325.19 87.31 307.59 89.68 307.59"/>
        <polygon class="cls-4" points="90.97 313.8 89.68 307.59 90.97 307.59 90.97 313.8"/>
      </g>
    </g>
    <g>
      <path class="cls-5" d="m88.73,234.77c-9.06,1.18-17.9,10.86-20.08,21.98-2.19,11.12,3.2,19.9,12.49,19.06,9.29-.83,18.78-11.24,20.74-22.74,1.97-11.47-4.08-19.49-13.15-18.3h0Z"/>
      <g class="cls-9">
        <polygon class="cls-4" points="66.46 275.61 66.67 276.64 66.46 276.64 66.46 275.61"/>
        <polygon class="cls-4" points="66.46 264.21 69.04 276.64 66.67 276.64 66.46 275.61 66.46 264.21"/>
        <polygon class="cls-4" points="66.46 252.82 71.41 276.64 69.04 276.64 66.46 264.21 66.46 252.82"/>
        <polygon class="cls-4" points="66.46 241.42 73.77 276.64 71.41 276.64 66.46 252.82 66.46 241.42"/>
        <polygon class="cls-4" points="66.46 235.65 67.58 235.42 76.14 276.64 73.77 276.64 66.46 241.42 66.46 235.65"/>
        <polygon class="cls-4" points="67.58 235.42 69.85 234.95 78.51 276.64 76.14 276.64 67.58 235.42"/>
        <polygon class="cls-4" points="69.85 234.95 72.12 234.48 80.88 276.64 78.51 276.64 69.85 234.95"/>
        <polygon class="cls-4" points="72.12 234.48 74.39 234 83.25 276.64 80.88 276.64 72.12 234.48"/>
        <polygon class="cls-4" points="74.39 234 76.44 233.58 76.66 233.58 85.61 276.64 83.25 276.64 74.39 234"/>
        <polygon class="cls-4" points="79.03 233.58 87.98 276.64 85.61 276.64 76.66 233.58 79.03 233.58"/>
        <polygon class="cls-4" points="81.4 233.58 90.35 276.64 87.98 276.64 79.03 233.58 81.4 233.58"/>
        <polygon class="cls-4" points="83.77 233.58 92.72 276.64 90.35 276.64 81.4 233.58 83.77 233.58"/>
        <polygon class="cls-4" points="86.14 233.58 95.08 276.64 92.72 276.64 83.77 233.58 86.14 233.58"/>
        <polygon class="cls-4" points="88.5 233.58 97.43 276.55 96.99 276.64 95.08 276.64 86.14 233.58 88.5 233.58"/>
        <polygon class="cls-4" points="90.87 233.58 99.7 276.08 97.43 276.55 88.5 233.58 90.87 233.58"/>
        <polygon class="cls-4" points="93.24 233.58 101.97 275.61 99.7 276.08 90.87 233.58 93.24 233.58"/>
        <polygon class="cls-4" points="95.61 233.58 103.85 273.23 103.85 275.22 101.97 275.61 93.24 233.58 95.61 233.58"/>
        <polygon class="cls-4" points="97.98 233.58 103.85 261.84 103.85 273.23 95.61 233.58 97.98 233.58"/>
        <polygon class="cls-4" points="100.34 233.58 103.85 250.44 103.85 261.84 97.98 233.58 100.34 233.58"/>
        <polygon class="cls-4" points="102.71 233.58 103.85 239.04 103.85 250.44 100.34 233.58 102.71 233.58"/>
        <polygon class="cls-4" points="103.85 239.04 102.71 233.58 103.85 233.58 103.85 239.04"/>
      </g>
    </g>
    <g>
      <path class="cls-5" d="m101.03,169.37c-8.7,1.74-17.1,10.93-19.1,20.88-2,9.94,3.26,17.15,12.18,15.71,8.91-1.45,17.87-11.23,19.66-21.45,1.8-10.23-4.05-16.86-12.74-15.13h0Z"/>
      <g class="cls-10">
        <polygon class="cls-4" points="79.93 203.7 80.7 207.39 79.93 207.39 79.93 203.7"/>
        <polygon class="cls-4" points="79.93 192.3 83.06 207.39 80.7 207.39 79.93 203.7 79.93 192.3"/>
        <polygon class="cls-4" points="79.93 180.91 85.43 207.39 83.06 207.39 79.93 192.3 79.93 180.91"/>
        <polygon class="cls-4" points="79.93 170.65 80.15 170.6 87.8 207.39 85.43 207.39 79.93 180.91 79.93 170.65"/>
        <polygon class="cls-4" points="80.15 170.6 82.42 170.13 90.17 207.39 87.8 207.39 80.15 170.6"/>
        <polygon class="cls-4" points="82.42 170.13 84.69 169.66 92.53 207.39 90.17 207.39 82.42 170.13"/>
        <polygon class="cls-4" points="84.69 169.66 86.96 169.18 94.9 207.39 92.53 207.39 84.69 169.66"/>
        <polygon class="cls-4" points="86.96 169.18 89.23 168.71 97.27 207.39 94.9 207.39 86.96 169.18"/>
        <polygon class="cls-4" points="89.23 168.71 91.5 168.24 99.64 207.39 97.27 207.39 89.23 168.71"/>
        <polygon class="cls-4" points="91.5 168.24 93.77 167.77 102 207.39 99.64 207.39 91.5 168.24"/>
        <polygon class="cls-4" points="93.77 167.77 94.37 167.65 96.11 167.65 104.34 207.26 103.73 207.39 102 207.39 93.77 167.77"/>
        <polygon class="cls-4" points="98.48 167.65 106.61 206.79 104.34 207.26 96.11 167.65 98.48 167.65"/>
        <polygon class="cls-4" points="100.85 167.65 108.88 206.32 106.61 206.79 98.48 167.65 100.85 167.65"/>
        <polygon class="cls-4" points="103.21 167.65 111.15 205.85 108.88 206.32 100.85 167.65 103.21 167.65"/>
        <polygon class="cls-4" points="105.58 167.65 113.42 205.38 111.15 205.85 103.21 167.65 105.58 167.65"/>
        <polygon class="cls-4" points="107.95 167.65 115.57 204.34 115.57 204.93 113.42 205.38 105.58 167.65 107.95 167.65"/>
        <polygon class="cls-4" points="110.32 167.65 115.57 192.94 115.57 204.34 107.95 167.65 110.32 167.65"/>
        <polygon class="cls-4" points="112.68 167.65 115.57 181.55 115.57 192.94 110.32 167.65 112.68 167.65"/>
        <polygon class="cls-4" points="115.05 167.65 115.57 170.16 115.57 181.55 112.68 167.65 115.05 167.65"/>
        <polygon class="cls-4" points="115.57 170.16 115.05 167.65 115.57 167.65 115.57 170.16"/>
      </g>
    </g>
    <g>
      <path class="cls-5" d="m112.23,110.81c-8.37,2.14-16.34,10.81-18.17,19.74-1.82,8.93,3.31,15.02,11.87,13.09,8.55-1.91,17.07-11.28,18.71-20.41,1.64-9.15-4.05-14.56-12.42-12.42h0Z"/>
      <g class="cls-21">
        <polygon class="cls-4" points="92.24 137.64 93.89 145.57 92.24 145.57 92.24 137.64"/>
        <polygon class="cls-4" points="92.24 126.25 96.26 145.57 93.89 145.57 92.24 137.64 92.24 126.25"/>
        <polygon class="cls-4" points="92.24 114.86 98.63 145.57 96.26 145.57 92.24 126.25 92.24 114.86"/>
        <polygon class="cls-4" points="92.24 111.52 93.85 111.19 100.99 145.57 98.63 145.57 92.24 114.86 92.24 111.52"/>
        <polygon class="cls-4" points="93.85 111.19 96.12 110.72 103.36 145.57 100.99 145.57 93.85 111.19"/>
        <polygon class="cls-4" points="96.12 110.72 98.39 110.25 105.73 145.57 103.36 145.57 96.12 110.72"/>
        <polygon class="cls-4" points="98.39 110.25 100.66 109.77 108.1 145.57 105.73 145.57 98.39 110.25"/>
        <polygon class="cls-4" points="100.66 109.77 102.93 109.3 110.46 145.57 108.1 145.57 100.66 109.77"/>
        <polygon class="cls-4" points="102.93 109.3 105.2 108.83 112.8 145.4 111.97 145.57 110.46 145.57 102.93 109.3"/>
        <polygon class="cls-4" points="105.2 108.83 106 108.66 107.53 108.66 115.06 144.93 112.8 145.4 105.2 108.83"/>
        <polygon class="cls-4" points="109.9 108.66 117.33 144.46 115.06 144.93 107.53 108.66 109.9 108.66"/>
        <polygon class="cls-4" points="112.26 108.66 119.6 143.98 117.33 144.46 109.9 108.66 112.26 108.66"/>
        <polygon class="cls-4" points="114.63 108.66 121.87 143.51 119.6 143.98 112.26 108.66 114.63 108.66"/>
        <polygon class="cls-4" points="117 108.66 124.14 143.04 121.87 143.51 114.63 108.66 117 108.66"/>
        <polygon class="cls-4" points="119.37 108.66 126.29 141.99 126.29 142.59 124.14 143.04 117 108.66 119.37 108.66"/>
        <polygon class="cls-4" points="121.73 108.66 126.29 130.6 126.29 141.99 119.37 108.66 121.73 108.66"/>
        <polygon class="cls-4" points="124.1 108.66 126.29 119.21 126.29 130.6 121.73 108.66 124.1 108.66"/>
        <polygon class="cls-4" points="126.29 119.21 124.1 108.66 126.29 108.66 126.29 119.21"/>
      </g>
    </g>
    <g>
      <path class="cls-5" d="m122.57,57.93c-8.08,2.48-15.73,10.83-17.41,18.88-1.68,8.07,3.35,13.1,11.58,10.8,8.21-2.31,16.35-11.21,17.88-19.44,1.52-8.22-4-12.73-12.06-10.24h0Z"/>
      <g class="cls-17">
        <polygon class="cls-4" points="103.49 89.2 103.63 89.91 103.49 89.91 103.49 89.2"/>
        <polygon class="cls-4" points="103.49 77.81 106 89.91 103.63 89.91 103.49 89.2 103.49 77.81"/>
        <polygon class="cls-4" points="103.49 66.41 108.37 89.91 106 89.91 103.49 77.81 103.49 66.41"/>
        <polygon class="cls-4" points="103.49 58.05 104.09 57.92 110.74 89.91 108.37 89.91 103.49 66.41 103.49 58.05"/>
        <polygon class="cls-4" points="104.09 57.92 106.36 57.45 113.11 89.91 110.74 89.91 104.09 57.92"/>
        <polygon class="cls-4" points="106.36 57.45 108.63 56.98 115.47 89.91 113.11 89.91 106.36 57.45"/>
        <polygon class="cls-4" points="108.63 56.98 110.9 56.51 117.84 89.91 115.47 89.91 108.63 56.98"/>
        <polygon class="cls-4" points="110.9 56.51 113.17 56.03 120.21 89.91 117.84 89.91 110.9 56.51"/>
        <polygon class="cls-4" points="113.17 56.03 115.44 55.56 122.58 89.91 120.21 89.91 113.17 56.03"/>
        <polygon class="cls-4" points="115.44 55.56 116.03 55.44 117.78 55.44 124.87 89.54 123.12 89.91 122.58 89.91 115.44 55.56"/>
        <polygon class="cls-4" points="120.15 55.44 127.14 89.07 124.87 89.54 117.78 55.44 120.15 55.44"/>
        <polygon class="cls-4" points="122.52 55.44 129.41 88.6 127.14 89.07 120.15 55.44 122.52 55.44"/>
        <polygon class="cls-4" points="124.89 55.44 131.68 88.13 129.41 88.6 122.52 55.44 124.89 55.44"/>
        <polygon class="cls-4" points="127.26 55.44 133.95 87.66 131.68 88.13 124.89 55.44 127.26 55.44"/>
        <polygon class="cls-4" points="129.62 55.44 136.15 86.83 136.15 87.2 133.95 87.66 127.26 55.44 129.62 55.44"/>
        <polygon class="cls-4" points="131.99 55.44 136.15 75.43 136.15 86.83 129.62 55.44 131.99 55.44"/>
        <polygon class="cls-4" points="134.36 55.44 136.15 64.03 136.15 75.43 131.99 55.44 134.36 55.44"/>
        <polygon class="cls-4" points="136.15 64.03 134.36 55.44 136.15 55.44 136.15 64.03"/>
      </g>
    </g>
    <g>
      <path class="cls-5" d="m138.42,303.39c-11.45.62-21.98,12.17-24.07,26.3-2.07,14.12,5.33,26.12,17.12,26.09,11.8-.02,23.25-12.61,24.99-27.32,1.73-14.69-6.61-25.71-18.04-25.07h0Z"/>
      <g class="cls-26">
        <polygon class="cls-4" points="112.27 347.98 113.9 355.81 112.27 355.81 112.27 347.98"/>
        <polygon class="cls-4" points="112.27 336.58 116.27 355.81 113.9 355.81 112.27 347.98 112.27 336.58"/>
        <polygon class="cls-4" points="112.27 325.19 118.64 355.81 116.27 355.81 112.27 336.58 112.27 325.19"/>
        <polygon class="cls-4" points="112.27 313.79 121 355.81 118.64 355.81 112.27 325.19 112.27 313.79"/>
        <polygon class="cls-4" points="112.27 304.02 112.6 303.96 123.37 355.81 121 355.81 112.27 313.79 112.27 304.02"/>
        <polygon class="cls-4" points="112.6 303.96 114.87 303.48 125.74 355.81 123.37 355.81 112.6 303.96"/>
        <polygon class="cls-4" points="114.87 303.48 117.14 303.01 128.11 355.81 125.74 355.81 114.87 303.48"/>
        <polygon class="cls-4" points="117.14 303.01 118.41 302.75 119.45 302.75 130.48 355.81 128.11 355.81 117.14 303.01"/>
        <polygon class="cls-4" points="121.82 302.75 132.84 355.81 130.48 355.81 119.45 302.75 121.82 302.75"/>
        <polygon class="cls-4" points="124.19 302.75 135.21 355.81 132.84 355.81 121.82 302.75 124.19 302.75"/>
        <polygon class="cls-4" points="126.55 302.75 137.58 355.81 135.21 355.81 124.19 302.75 126.55 302.75"/>
        <polygon class="cls-4" points="128.92 302.75 139.95 355.81 137.58 355.81 126.55 302.75 128.92 302.75"/>
        <polygon class="cls-4" points="131.29 302.75 142.32 355.81 139.95 355.81 128.92 302.75 131.29 302.75"/>
        <polygon class="cls-4" points="133.66 302.75 144.68 355.81 142.32 355.81 131.29 302.75 133.66 302.75"/>
        <polygon class="cls-4" points="136.03 302.75 147.05 355.81 144.68 355.81 133.66 302.75 136.03 302.75"/>
        <polygon class="cls-4" points="138.39 302.75 149.42 355.81 147.05 355.81 136.03 302.75 138.39 302.75"/>
        <polygon class="cls-4" points="140.76 302.75 151.79 355.81 149.42 355.81 138.39 302.75 140.76 302.75"/>
        <polygon class="cls-4" points="143.13 302.75 154.15 355.81 151.79 355.81 140.76 302.75 143.13 302.75"/>
        <polygon class="cls-4" points="145.5 302.75 156.52 355.81 154.15 355.81 143.13 302.75 145.5 302.75"/>
        <polygon class="cls-4" points="147.86 302.75 158.19 352.44 158.19 355.69 157.61 355.81 156.52 355.81 145.5 302.75 147.86 302.75"/>
        <polygon class="cls-4" points="150.23 302.75 158.19 341.04 158.19 352.44 147.86 302.75 150.23 302.75"/>
        <polygon class="cls-4" points="152.6 302.75 158.19 329.65 158.19 341.04 150.23 302.75 152.6 302.75"/>
        <polygon class="cls-4" points="154.97 302.75 158.19 318.25 158.19 329.65 152.6 302.75 154.97 302.75"/>
        <polygon class="cls-4" points="157.34 302.75 158.19 306.86 158.19 318.25 154.97 302.75 157.34 302.75"/>
        <polygon class="cls-4" points="158.19 306.86 157.34 302.75 158.19 302.75 158.19 306.86"/>
      </g>
    </g>
    <g>
      <path class="cls-5" d="m149.01,225.65c-10.89,1.39-20.85,12.33-22.74,24.76-1.89,12.44,5.23,22.26,16.43,21.31,11.2-.96,22.04-12.72,23.6-25.62,1.56-12.91-6.42-21.85-17.29-20.46h0Z"/>
      <g class="cls-2">
        <polygon class="cls-4" points="124.37 269.46 125.04 272.67 124.37 272.67 124.37 269.46"/>
        <polygon class="cls-4" points="124.37 258.06 127.41 272.67 125.04 272.67 124.37 269.46 124.37 258.06"/>
        <polygon class="cls-4" points="124.37 246.67 129.78 272.67 127.41 272.67 124.37 258.06 124.37 246.67"/>
        <polygon class="cls-4" points="124.37 235.28 132.14 272.67 129.78 272.67 124.37 246.67 124.37 235.28"/>
        <polygon class="cls-4" points="124.37 226.86 124.97 226.74 134.51 272.67 132.14 272.67 124.37 235.28 124.37 226.86"/>
        <polygon class="cls-4" points="124.97 226.74 127.24 226.26 136.88 272.67 134.51 272.67 124.97 226.74"/>
        <polygon class="cls-4" points="127.24 226.26 129.51 225.79 139.25 272.67 136.88 272.67 127.24 226.26"/>
        <polygon class="cls-4" points="129.51 225.79 131.77 225.32 141.61 272.67 139.25 272.67 129.51 225.79"/>
        <polygon class="cls-4" points="131.77 225.32 134.04 224.85 143.98 272.67 141.61 272.67 131.77 225.32"/>
        <polygon class="cls-4" points="134.04 224.85 136.31 224.38 146.35 272.67 143.98 272.67 134.04 224.85"/>
        <polygon class="cls-4" points="136.31 224.38 136.91 224.25 138.66 224.25 148.72 272.67 146.35 272.67 136.31 224.38"/>
        <polygon class="cls-4" points="141.02 224.25 151.08 272.67 148.72 272.67 138.66 224.25 141.02 224.25"/>
        <polygon class="cls-4" points="143.39 224.25 153.45 272.67 151.08 272.67 141.02 224.25 143.39 224.25"/>
        <polygon class="cls-4" points="145.76 224.25 155.82 272.67 153.45 272.67 143.39 224.25 145.76 224.25"/>
        <polygon class="cls-4" points="148.13 224.25 158.19 272.67 155.82 272.67 145.76 224.25 148.13 224.25"/>
        <polygon class="cls-4" points="150.49 224.25 160.5 272.42 159.32 272.67 158.19 272.67 148.13 224.25 150.49 224.25"/>
        <polygon class="cls-4" points="152.86 224.25 162.77 271.95 160.5 272.42 150.49 224.25 152.86 224.25"/>
        <polygon class="cls-4" points="155.23 224.25 165.04 271.48 162.77 271.95 152.86 224.25 155.23 224.25"/>
        <polygon class="cls-4" points="157.6 224.25 167.31 271.01 165.04 271.48 155.23 224.25 157.6 224.25"/>
        <polygon class="cls-4" points="159.96 224.25 167.85 262.23 167.85 270.89 167.31 271.01 157.6 224.25 159.96 224.25"/>
        <polygon class="cls-4" points="162.33 224.25 167.85 250.83 167.85 262.23 159.96 224.25 162.33 224.25"/>
        <polygon class="cls-4" points="164.7 224.25 167.85 239.44 167.85 250.83 162.33 224.25 164.7 224.25"/>
        <polygon class="cls-4" points="167.07 224.25 167.85 228.05 167.85 239.44 164.7 224.25 167.07 224.25"/>
        <polygon class="cls-4" points="167.85 228.05 167.07 224.25 167.85 224.25 167.85 228.05"/>
      </g>
    </g>
    <g>
      <path class="cls-5" d="m158.64,156.98c-10.36,2.02-19.8,12.3-21.55,23.34-1.73,11.05,5.12,19.1,15.79,17.43,10.67-1.67,20.89-12.73,22.34-24.13,1.42-11.42-6.24-18.66-16.59-16.64h0Z"/>
      <g class="cls-14">
        <polygon class="cls-4" points="135.36 197 135.87 199.42 135.36 199.42 135.36 197"/>
        <polygon class="cls-4" points="135.36 185.61 138.23 199.42 135.87 199.42 135.36 197 135.36 185.61"/>
        <polygon class="cls-4" points="135.36 174.21 140.6 199.42 138.23 199.42 135.36 185.61 135.36 174.21"/>
        <polygon class="cls-4" points="135.36 162.82 142.97 199.42 140.6 199.42 135.36 174.21 135.36 162.82"/>
        <polygon class="cls-4" points="135.36 158.66 136.8 158.36 145.34 199.42 142.97 199.42 135.36 162.82 135.36 158.66"/>
        <polygon class="cls-4" points="136.8 158.36 139.07 157.88 147.7 199.42 145.34 199.42 136.8 158.36"/>
        <polygon class="cls-4" points="139.07 157.88 141.34 157.41 150.07 199.42 147.7 199.42 139.07 157.88"/>
        <polygon class="cls-4" points="141.34 157.41 143.61 156.94 152.44 199.42 150.07 199.42 141.34 157.41"/>
        <polygon class="cls-4" points="143.61 156.94 145.88 156.47 154.81 199.42 152.44 199.42 143.61 156.94"/>
        <polygon class="cls-4" points="145.88 156.47 148.15 156 157.18 199.42 154.81 199.42 145.88 156.47"/>
        <polygon class="cls-4" points="148.15 156 150.42 155.53 159.54 199.42 157.18 199.42 148.15 156"/>
        <polygon class="cls-4" points="150.42 155.53 152.69 155.05 161.91 199.42 159.54 199.42 150.42 155.53"/>
        <polygon class="cls-4" points="152.69 155.05 153.16 154.96 155.04 154.96 164.19 198.99 162.11 199.42 161.91 199.42 152.69 155.05"/>
        <polygon class="cls-4" points="157.41 154.96 166.46 198.52 164.19 198.99 155.04 154.96 157.41 154.96"/>
        <polygon class="cls-4" points="159.78 154.96 168.73 198.05 166.46 198.52 157.41 154.96 159.78 154.96"/>
        <polygon class="cls-4" points="162.14 154.96 171 197.58 168.73 198.05 159.78 154.96 162.14 154.96"/>
        <polygon class="cls-4" points="164.51 154.96 173.27 197.1 171 197.58 162.14 154.96 164.51 154.96"/>
        <polygon class="cls-4" points="166.88 154.96 175.54 196.63 173.27 197.1 164.51 154.96 166.88 154.96"/>
        <polygon class="cls-4" points="169.25 154.96 176.65 190.6 176.65 196.4 175.54 196.63 166.88 154.96 169.25 154.96"/>
        <polygon class="cls-4" points="171.61 154.96 176.65 179.2 176.65 190.6 169.25 154.96 171.61 154.96"/>
        <polygon class="cls-4" points="173.98 154.96 176.65 167.81 176.65 179.2 171.61 154.96 173.98 154.96"/>
        <polygon class="cls-4" points="176.35 154.96 176.65 156.41 176.65 167.81 173.98 154.96 176.35 154.96"/>
        <polygon class="cls-4" points="176.65 156.41 176.35 154.96 176.65 154.96 176.65 156.41"/>
      </g>
    </g>
    <g>
      <path class="cls-5" d="m167.46,95.78c-9.91,2.48-18.91,12.18-20.49,22.07-1.57,9.9,5.05,16.54,15.22,14.34,10.18-2.21,19.89-12.74,21.18-22.91,1.3-10.17-6-16.01-15.91-13.5h0Z"/>
      <g class="cls-7">
        <polygon class="cls-4" points="145.4 131.36 146.03 134.39 145.4 134.39 145.4 131.36"/>
        <polygon class="cls-4" points="145.4 119.97 148.4 134.39 146.03 134.39 145.4 131.36 145.4 119.97"/>
        <polygon class="cls-4" points="145.4 108.58 150.76 134.39 148.4 134.39 145.4 119.97 145.4 108.58"/>
        <polygon class="cls-4" points="145.4 97.19 153.13 134.39 150.76 134.39 145.4 108.58 145.4 97.19"/>
        <polygon class="cls-4" points="145.4 96.88 147.61 96.42 155.5 134.39 153.13 134.39 145.4 97.19 145.4 96.88"/>
        <polygon class="cls-4" points="147.61 96.42 149.88 95.95 157.87 134.39 155.5 134.39 147.61 96.42"/>
        <polygon class="cls-4" points="149.88 95.95 152.15 95.48 160.23 134.39 157.87 134.39 149.88 95.95"/>
        <polygon class="cls-4" points="152.15 95.48 154.42 95.01 162.6 134.39 160.23 134.39 152.15 95.48"/>
        <polygon class="cls-4" points="154.42 95.01 156.69 94.54 164.97 134.39 162.6 134.39 154.42 95.01"/>
        <polygon class="cls-4" points="156.69 94.54 158.96 94.07 167.31 134.25 166.62 134.39 164.97 134.39 156.69 94.54"/>
        <rect class="cls-4" x="163.11" y="93.4" width="2.32" height="41.04" transform="translate(-19.74 35.8) rotate(-11.74)"/>
        <polygon class="cls-4" points="161.22 93.6 162.77 93.27 163.53 93.27 171.84 133.3 169.57 133.78 161.22 93.6"/>
        <polygon class="cls-4" points="165.89 93.27 174.11 132.83 171.84 133.3 163.53 93.27 165.89 93.27"/>
        <polygon class="cls-4" points="168.26 93.27 176.38 132.36 174.11 132.83 165.89 93.27 168.26 93.27"/>
        <polygon class="cls-4" points="170.63 93.27 178.65 131.89 176.38 132.36 168.26 93.27 170.63 93.27"/>
        <polygon class="cls-4" points="172.99 93.27 180.92 131.42 178.65 131.89 170.63 93.27 172.99 93.27"/>
        <polygon class="cls-4" points="175.36 93.27 183.19 130.95 180.92 131.42 172.99 93.27 175.36 93.27"/>
        <polygon class="cls-4" points="177.73 93.27 184.66 126.65 184.66 130.64 183.19 130.95 175.36 93.27 177.73 93.27"/>
        <polygon class="cls-4" points="180.1 93.27 184.66 115.26 184.66 126.65 177.73 93.27 180.1 93.27"/>
        <polygon class="cls-4" points="182.46 93.27 184.66 103.87 184.66 115.26 180.1 93.27 182.46 93.27"/>
        <polygon class="cls-4" points="184.66 103.87 182.46 93.27 184.66 93.27 184.66 103.87"/>
      </g>
    </g>
    <g>
      <path class="cls-5" d="m175.56,40.85c-9.48,2.88-18.06,12.22-19.51,21.07-1.44,8.84,4.94,14.34,14.66,11.65,9.73-2.67,18.96-12.66,20.16-21.74,1.21-9.08-5.84-13.87-15.31-10.99h0Z"/>
      <g class="cls-23">
        <polygon class="cls-4" points="154.61 73.15 155.26 76.26 154.61 76.26 154.61 73.15"/>
        <polygon class="cls-4" points="154.61 61.76 157.62 76.26 155.26 76.26 154.61 73.15 154.61 61.76"/>
        <polygon class="cls-4" points="154.61 50.37 159.99 76.26 157.62 76.26 154.61 61.76 154.61 50.37"/>
        <polygon class="cls-4" points="154.61 41.25 155.06 41.16 162.36 76.26 159.99 76.26 154.61 50.37 154.61 41.25"/>
        <polygon class="cls-4" points="155.06 41.16 157.33 40.68 164.73 76.26 162.36 76.26 155.06 41.16"/>
        <polygon class="cls-4" points="157.33 40.68 159.6 40.21 167.09 76.26 164.73 76.26 157.33 40.68"/>
        <polygon class="cls-4" points="159.6 40.21 161.87 39.74 169.46 76.26 167.09 76.26 159.6 40.21"/>
        <polygon class="cls-4" points="161.87 39.74 164.14 39.27 171.83 76.26 169.46 76.26 161.87 39.74"/>
        <polygon class="cls-4" points="164.14 39.27 166.41 38.8 174.2 76.26 171.83 76.26 164.14 39.27"/>
        <polygon class="cls-4" points="166.41 38.8 168.68 38.33 176.52 76.07 175.59 76.26 174.2 76.26 166.41 38.8"/>
        <polygon class="cls-4" points="168.68 38.33 170.44 37.96 170.97 37.96 178.79 75.6 176.52 76.07 168.68 38.33"/>
        <polygon class="cls-4" points="173.34 37.96 181.06 75.13 178.79 75.6 170.97 37.96 173.34 37.96"/>
        <polygon class="cls-4" points="175.71 37.96 183.33 74.65 181.06 75.13 173.34 37.96 175.71 37.96"/>
        <polygon class="cls-4" points="178.08 37.96 185.6 74.18 183.33 74.65 175.71 37.96 178.08 37.96"/>
        <polygon class="cls-4" points="180.44 37.96 187.87 73.71 185.6 74.18 178.08 37.96 180.44 37.96"/>
        <polygon class="cls-4" points="182.81 37.96 190.14 73.24 187.87 73.71 180.44 37.96 182.81 37.96"/>
        <polygon class="cls-4" points="185.18 37.96 192.09 71.2 192.09 72.84 190.14 73.24 182.81 37.96 185.18 37.96"/>
        <polygon class="cls-4" points="187.55 37.96 192.09 59.81 192.09 71.2 185.18 37.96 187.55 37.96"/>
        <polygon class="cls-4" points="189.91 37.96 192.09 48.41 192.09 59.81 187.55 37.96 189.91 37.96"/>
        <polygon class="cls-4" points="192.09 48.41 189.91 37.96 192.09 37.96 192.09 48.41"/>
      </g>
    </g>
    <g>
      <path class="cls-5" d="m210.66,298.01c-13.85.76-25.8,13.75-27.37,29.67-1.58,15.93,8.24,29.48,22.61,29.47,14.36-.01,27.62-14.23,28.65-30.87,1.02-16.64-10.02-29.02-23.89-28.27h0Z"/>
      <g class="cls-8">
        <polygon class="cls-4" points="181.72 351.7 182.85 357.16 181.72 357.16 181.72 351.7"/>
        <polygon class="cls-4" points="181.72 340.31 185.22 357.16 182.85 357.16 181.72 351.7 181.72 340.31"/>
        <polygon class="cls-4" points="181.72 328.92 187.58 357.16 185.22 357.16 181.72 340.31 181.72 328.92"/>
        <polygon class="cls-4" points="181.72 317.52 189.95 357.16 187.58 357.16 181.72 328.92 181.72 317.52"/>
        <polygon class="cls-4" points="181.72 306.13 192.32 357.16 189.95 357.16 181.72 317.52 181.72 306.13"/>
        <polygon class="cls-4" points="181.72 298.87 182.54 298.7 194.69 357.16 192.32 357.16 181.72 306.13 181.72 298.87"/>
        <polygon class="cls-4" points="182.54 298.7 184.81 298.23 197.06 357.16 194.69 357.16 182.54 298.7"/>
        <polygon class="cls-4" points="184.81 298.23 187.08 297.76 199.42 357.16 197.06 357.16 184.81 298.23"/>
        <polygon class="cls-4" points="187.08 297.76 189.35 297.29 201.79 357.16 199.42 357.16 187.08 297.76"/>
        <polygon class="cls-4" points="189.35 297.29 189.46 297.26 191.71 297.26 204.16 357.16 201.79 357.16 189.35 297.29"/>
        <polygon class="cls-4" points="194.08 297.26 206.53 357.16 204.16 357.16 191.71 297.26 194.08 297.26"/>
        <polygon class="cls-4" points="196.45 297.26 208.89 357.16 206.53 357.16 194.08 297.26 196.45 297.26"/>
        <polygon class="cls-4" points="198.81 297.26 211.26 357.16 208.89 357.16 196.45 297.26 198.81 297.26"/>
        <polygon class="cls-4" points="201.18 297.26 213.63 357.16 211.26 357.16 198.81 297.26 201.18 297.26"/>
        <polygon class="cls-4" points="203.55 297.26 216 357.16 213.63 357.16 201.18 297.26 203.55 297.26"/>
        <polygon class="cls-4" points="205.92 297.26 218.36 357.16 216 357.16 203.55 297.26 205.92 297.26"/>
        <polygon class="cls-4" points="208.28 297.26 220.73 357.16 218.36 357.16 205.92 297.26 208.28 297.26"/>
        <polygon class="cls-4" points="210.65 297.26 223.1 357.16 220.73 357.16 208.28 297.26 210.65 297.26"/>
        <polygon class="cls-4" points="213.02 297.26 225.47 357.16 223.1 357.16 210.65 297.26 213.02 297.26"/>
        <polygon class="cls-4" points="215.39 297.26 227.83 357.16 225.47 357.16 213.02 297.26 215.39 297.26"/>
        <polygon class="cls-4" points="217.75 297.26 230.2 357.16 227.83 357.16 215.39 297.26 217.75 297.26"/>
        <polygon class="cls-4" points="220.12 297.26 232.57 357.16 230.2 357.16 217.75 297.26 220.12 297.26"/>
        <polygon class="cls-4" points="222.49 297.26 234.93 357.12 234.76 357.16 232.57 357.16 220.12 297.26 222.49 297.26"/>
        <polygon class="cls-4" points="224.86 297.26 235.58 348.87 235.58 356.99 234.93 357.12 222.49 297.26 224.86 297.26"/>
        <polygon class="cls-4" points="227.22 297.26 235.58 337.48 235.58 348.87 224.86 297.26 227.22 297.26"/>
        <polygon class="cls-4" points="229.59 297.26 235.58 326.09 235.58 337.48 227.22 297.26 229.59 297.26"/>
        <polygon class="cls-4" points="231.96 297.26 235.58 314.69 235.58 326.09 229.59 297.26 231.96 297.26"/>
        <polygon class="cls-4" points="234.33 297.26 235.58 303.3 235.58 314.69 231.96 297.26 234.33 297.26"/>
        <polygon class="cls-4" points="235.58 303.3 234.33 297.26 235.58 297.26 235.58 303.3"/>
      </g>
    </g>
    <g>
      <path class="cls-5" d="m217.54,215.69c-13.08,1.64-24.42,13.82-25.82,27.73-1.41,13.9,7.93,24.92,21.49,23.83,13.56-1.08,25.96-14.36,26.92-28.85.95-14.49-9.51-24.35-22.59-22.71h0Z"/>
      <g class="cls-3">
        <polygon class="cls-4" points="190.3 267.66 190.45 268.34 190.3 268.34 190.3 267.66"/>
        <polygon class="cls-4" points="190.3 256.27 192.81 268.34 190.45 268.34 190.3 267.66 190.3 256.27"/>
        <polygon class="cls-4" points="190.3 244.87 195.18 268.34 192.81 268.34 190.3 256.27 190.3 244.87"/>
        <polygon class="cls-4" points="190.3 233.48 197.55 268.34 195.18 268.34 190.3 244.87 190.3 233.48"/>
        <polygon class="cls-4" points="190.3 222.09 199.91 268.34 197.55 268.34 190.3 233.48 190.3 222.09"/>
        <polygon class="cls-4" points="190.3 217.23 191.61 216.96 202.28 268.34 199.91 268.34 190.3 222.09 190.3 217.23"/>
        <polygon class="cls-4" points="191.61 216.96 193.88 216.49 204.65 268.34 202.28 268.34 191.61 216.96"/>
        <polygon class="cls-4" points="193.88 216.49 196.14 216.02 207.02 268.34 204.65 268.34 193.88 216.49"/>
        <polygon class="cls-4" points="196.14 216.02 198.41 215.55 209.38 268.34 207.02 268.34 196.14 216.02"/>
        <polygon class="cls-4" points="198.41 215.55 200.68 215.07 211.75 268.34 209.38 268.34 198.41 215.55"/>
        <polygon class="cls-4" points="200.68 215.07 202.95 214.6 214.12 268.34 211.75 268.34 200.68 215.07"/>
        <polygon class="cls-4" points="202.95 214.6 205.22 214.13 216.48 268.34 214.12 268.34 202.95 214.6"/>
        <polygon class="cls-4" points="205.22 214.13 205.65 214.04 207.57 214.04 218.85 268.34 216.48 268.34 205.22 214.13"/>
        <polygon class="cls-4" points="209.94 214.04 221.22 268.34 218.85 268.34 207.57 214.04 209.94 214.04"/>
        <polygon class="cls-4" points="212.3 214.04 223.59 268.34 221.22 268.34 209.94 214.04 212.3 214.04"/>
        <polygon class="cls-4" points="214.67 214.04 225.95 268.34 223.59 268.34 212.3 214.04 214.67 214.04"/>
        <polygon class="cls-4" points="217.04 214.04 228.32 268.34 225.95 268.34 214.67 214.04 217.04 214.04"/>
        <polygon class="cls-4" points="219.41 214.04 230.69 268.34 228.32 268.34 217.04 214.04 219.41 214.04"/>
        <polygon class="cls-4" points="221.77 214.04 232.97 267.91 230.94 268.34 230.69 268.34 219.41 214.04 221.77 214.04"/>
        <polygon class="cls-4" points="224.14 214.04 235.24 267.44 232.97 267.91 221.77 214.04 224.14 214.04"/>
        <polygon class="cls-4" points="226.51 214.04 237.51 266.97 235.24 267.44 224.14 214.04 226.51 214.04"/>
        <polygon class="cls-4" points="228.87 214.04 239.77 266.5 237.51 266.97 226.51 214.04 228.87 214.04"/>
        <polygon class="cls-4" points="231.24 214.04 241.07 261.35 241.07 266.23 239.77 266.5 228.87 214.04 231.24 214.04"/>
        <polygon class="cls-4" points="233.61 214.04 241.07 249.96 241.07 261.35 231.24 214.04 233.61 214.04"/>
        <polygon class="cls-4" points="235.98 214.04 241.07 238.56 241.07 249.96 233.61 214.04 235.98 214.04"/>
        <polygon class="cls-4" points="238.34 214.04 241.07 227.17 241.07 238.56 235.98 214.04 238.34 214.04"/>
        <polygon class="cls-4" points="240.71 214.04 241.07 215.78 241.07 227.17 238.34 214.04 240.71 214.04"/>
        <polygon class="cls-4" points="241.07 215.78 240.71 214.04 241.07 214.04 241.07 215.78"/>
      </g>
    </g>
    <g>
      <path class="cls-5" d="m223.75,143.32c-12.38,2.37-23.09,13.85-24.37,26.14-1.29,12.28,7.59,21.17,20.44,19.26,12.84-1.92,24.52-14.37,25.37-27.1.85-12.71-9.04-20.66-21.43-18.29h0Z"/>
      <g class="cls-24">
        <polygon class="cls-4" points="198.09 179.81 200.33 190.62 198.09 190.62 198.09 179.81"/>
        <polygon class="cls-4" points="198.09 168.42 202.7 190.62 200.33 190.62 198.09 179.81 198.09 168.42"/>
        <polygon class="cls-4" points="198.09 157.03 205.07 190.62 202.7 190.62 198.09 168.42 198.09 157.03"/>
        <polygon class="cls-4" points="198.09 145.63 207.44 190.62 205.07 190.62 198.09 157.03 198.09 145.63"/>
        <polygon class="cls-4" points="198.09 145.41 200.31 144.95 209.8 190.62 207.44 190.62 198.09 145.63 198.09 145.41"/>
        <polygon class="cls-4" points="200.31 144.95 202.58 144.48 212.17 190.62 209.8 190.62 200.31 144.95"/>
        <polygon class="cls-4" points="202.58 144.48 204.85 144 214.54 190.62 212.17 190.62 202.58 144.48"/>
        <polygon class="cls-4" points="204.85 144 207.12 143.53 216.9 190.62 214.54 190.62 204.85 144"/>
        <polygon class="cls-4" points="207.12 143.53 209.39 143.06 219.27 190.62 216.9 190.62 207.12 143.53"/>
        <polygon class="cls-4" points="209.39 143.06 211.66 142.59 221.64 190.62 219.27 190.62 209.39 143.06"/>
        <polygon class="cls-4" points="211.66 142.59 213.93 142.12 224.01 190.62 221.64 190.62 211.66 142.59"/>
        <polygon class="cls-4" points="213.93 142.12 216.2 141.65 226.37 190.62 224.01 190.62 213.93 142.12"/>
        <polygon class="cls-4" points="216.2 141.65 218.47 141.18 228.74 190.62 226.37 190.62 216.2 141.65"/>
        <polygon class="cls-4" points="218.47 141.18 219.57 140.95 220.79 140.95 231.01 190.17 228.82 190.62 228.74 190.62 218.47 141.18"/>
        <polygon class="cls-4" points="223.15 140.95 233.28 189.7 231.01 190.17 220.79 140.95 223.15 140.95"/>
        <polygon class="cls-4" points="225.52 140.95 235.55 189.23 233.28 189.7 223.15 140.95 225.52 140.95"/>
        <polygon class="cls-4" points="227.89 140.95 237.82 188.75 235.55 189.23 225.52 140.95 227.89 140.95"/>
        <polygon class="cls-4" points="230.25 140.95 240.09 188.28 237.82 188.75 227.89 140.95 230.25 140.95"/>
        <polygon class="cls-4" points="232.62 140.95 242.36 187.81 240.09 188.28 230.25 140.95 232.62 140.95"/>
        <polygon class="cls-4" points="234.99 140.95 244.63 187.34 242.36 187.81 232.62 140.95 234.99 140.95"/>
        <polygon class="cls-4" points="237.36 140.95 246.03 182.68 246.03 187.05 244.63 187.34 234.99 140.95 237.36 140.95"/>
        <polygon class="cls-4" points="239.72 140.95 246.03 171.29 246.03 182.68 237.36 140.95 239.72 140.95"/>
        <polygon class="cls-4" points="242.09 140.95 246.03 159.9 246.03 171.29 239.72 140.95 242.09 140.95"/>
        <polygon class="cls-4" points="244.46 140.95 246.03 148.51 246.03 159.9 242.09 140.95 244.46 140.95"/>
        <polygon class="cls-4" points="246.03 148.51 244.46 140.95 246.03 140.95 246.03 148.51"/>
      </g>
    </g>
    <g>
      <path class="cls-5" d="m229.48,79.26c-11.75,2.92-21.93,13.71-23.1,24.63-1.17,10.91,7.33,18.22,19.48,15.63,12.16-2.59,23.22-14.39,24-25.65.77-11.27-8.62-17.52-20.38-14.61h0Z"/>
      <g class="cls-22">
        <polygon class="cls-4" points="205.2 111.51 207.41 122.11 205.2 122.11 205.2 111.51"/>
        <polygon class="cls-4" points="205.2 100.11 209.77 122.11 207.41 122.11 205.2 111.51 205.2 100.11"/>
        <polygon class="cls-4" points="205.2 88.72 212.14 122.11 209.77 122.11 205.2 100.11 205.2 88.72"/>
        <polygon class="cls-4" points="205.2 80.81 205.9 80.67 214.51 122.11 212.14 122.11 205.2 88.72 205.2 80.81"/>
        <polygon class="cls-4" points="205.9 80.67 208.17 80.2 216.88 122.11 214.51 122.11 205.9 80.67"/>
        <polygon class="cls-4" points="208.17 80.2 210.44 79.72 219.25 122.11 216.88 122.11 208.17 80.2"/>
        <polygon class="cls-4" points="210.44 79.72 212.71 79.25 221.61 122.11 219.25 122.11 210.44 79.72"/>
        <polygon class="cls-4" points="212.71 79.25 214.98 78.78 223.98 122.11 221.61 122.11 212.71 79.25"/>
        <polygon class="cls-4" points="214.98 78.78 217.25 78.31 226.35 122.11 223.98 122.11 214.98 78.78"/>
        <polygon class="cls-4" points="217.25 78.31 219.52 77.84 228.7 122.03 228.3 122.11 226.35 122.11 217.25 78.31"/>
        <rect class="cls-4" x="224.08" y="77.13" width="2.32" height="45.13" transform="translate(-15.57 47.91) rotate(-11.74)"/>
        <rect class="cls-4" x="226.35" y="76.66" width="2.32" height="45.13" transform="translate(-15.43 48.36) rotate(-11.74)"/>
        <rect class="cls-4" x="228.62" y="76.19" width="2.32" height="45.13" transform="translate(-15.29 48.81) rotate(-11.74)"/>
        <polygon class="cls-4" points="226.33 76.42 226.64 76.36 228.68 76.36 237.78 120.14 235.51 120.61 226.33 76.42"/>
        <polygon class="cls-4" points="231.05 76.36 240.05 119.67 237.78 120.14 228.68 76.36 231.05 76.36"/>
        <polygon class="cls-4" points="233.41 76.36 242.32 119.2 240.05 119.67 231.05 76.36 233.41 76.36"/>
        <polygon class="cls-4" points="235.78 76.36 244.59 118.73 242.32 119.2 233.41 76.36 235.78 76.36"/>
        <polygon class="cls-4" points="238.15 76.36 246.86 118.26 244.59 118.73 235.78 76.36 238.15 76.36"/>
        <polygon class="cls-4" points="240.52 76.36 249.13 117.78 246.86 118.26 238.15 76.36 240.52 76.36"/>
        <polygon class="cls-4" points="242.89 76.36 250.62 113.6 250.62 117.47 249.13 117.78 240.52 76.36 242.89 76.36"/>
        <polygon class="cls-4" points="245.25 76.36 250.62 102.2 250.62 113.6 242.89 76.36 245.25 76.36"/>
        <polygon class="cls-4" points="247.62 76.36 250.62 90.81 250.62 102.2 245.25 76.36 247.62 76.36"/>
        <polygon class="cls-4" points="249.99 76.36 250.62 79.41 250.62 90.81 247.62 76.36 249.99 76.36"/>
        <polygon class="cls-4" points="250.62 79.41 249.99 76.36 250.62 76.36 250.62 79.41"/>
      </g>
    </g>
    <g>
      <path class="cls-5" d="m234.7,22.09c-11.18,3.37-20.82,13.68-21.9,23.42-1.09,9.74,7.03,15.62,18.58,12.52,11.54-3.08,22.01-14.25,22.71-24.25.72-10.01-8.19-15.06-19.39-11.69h0Z"/>
      <g class="cls-19">
        <polygon class="cls-4" points="211.71 51.69 213.67 61.13 211.71 61.13 211.71 51.69"/>
        <polygon class="cls-4" points="211.71 40.3 216.04 61.13 213.67 61.13 211.71 51.69 211.71 40.3"/>
        <polygon class="cls-4" points="211.71 28.9 218.41 61.13 216.04 61.13 211.71 40.3 211.71 28.9"/>
        <polygon class="cls-4" points="211.71 22.79 212.76 22.57 220.77 61.13 218.41 61.13 211.71 28.9 211.71 22.79"/>
        <polygon class="cls-4" points="212.76 22.57 215.03 22.1 223.14 61.13 220.77 61.13 212.76 22.57"/>
        <polygon class="cls-4" points="215.03 22.1 217.3 21.62 225.51 61.13 223.14 61.13 215.03 22.1"/>
        <polygon class="cls-4" points="217.3 21.62 219.57 21.15 227.88 61.13 225.51 61.13 217.3 21.62"/>
        <polygon class="cls-4" points="219.57 21.15 221.84 20.68 230.24 61.13 227.88 61.13 219.57 21.15"/>
        <polygon class="cls-4" points="221.84 20.68 224.11 20.21 232.61 61.13 230.24 61.13 221.84 20.68"/>
        <polygon class="cls-4" points="224.11 20.21 226.38 19.74 234.96 61.02 234.43 61.13 232.61 61.13 224.11 20.21"/>
        <rect class="cls-4" x="230.64" y="19.06" width="2.32" height="42.16" transform="translate(-3.32 48) rotate(-11.74)"/>
        <rect class="cls-4" x="232.91" y="18.59" width="2.32" height="42.16" transform="translate(-3.18 48.45) rotate(-11.74)"/>
        <polygon class="cls-4" points="230.92 18.79 231.3 18.72 233.27 18.72 241.77 59.6 239.5 60.08 230.92 18.79"/>
        <polygon class="cls-4" points="235.64 18.72 244.04 59.13 241.77 59.6 233.27 18.72 235.64 18.72"/>
        <polygon class="cls-4" points="238.01 18.72 246.31 58.66 244.04 59.13 235.64 18.72 238.01 18.72"/>
        <polygon class="cls-4" points="240.37 18.72 248.58 58.19 246.31 58.66 238.01 18.72 240.37 18.72"/>
        <polygon class="cls-4" points="242.74 18.72 250.84 57.72 248.58 58.19 240.37 18.72 242.74 18.72"/>
        <polygon class="cls-4" points="245.11 18.72 253.11 57.25 250.84 57.72 242.74 18.72 245.11 18.72"/>
        <polygon class="cls-4" points="247.48 18.72 254.8 53.98 254.8 56.89 253.11 57.25 245.11 18.72 247.48 18.72"/>
        <polygon class="cls-4" points="249.84 18.72 254.8 42.59 254.8 53.98 247.48 18.72 249.84 18.72"/>
        <polygon class="cls-4" points="252.21 18.72 254.8 31.19 254.8 42.59 249.84 18.72 252.21 18.72"/>
        <polygon class="cls-4" points="254.58 18.72 254.8 19.8 254.8 31.19 252.21 18.72 254.58 18.72"/>
        <polygon class="cls-4" points="254.8 19.8 254.58 18.72 254.8 18.72 254.8 19.8"/>
      </g>
    </g>
    <g>
      <path class="cls-5" d="m294.23,292.16c-16.97.89-30.58,15.44-31.34,33.36-.78,17.92,12.15,33.2,29.9,33.2s32.89-16.06,32.89-34.87-14.47-32.58-31.44-31.7h0Z"/>
      <g class="cls-1">
        <polygon class="cls-4" points="262.11 351.19 263.68 358.72 262.11 358.72 262.11 351.19"/>
        <polygon class="cls-4" points="262.11 339.8 266.04 358.72 263.68 358.72 262.11 351.19 262.11 339.8"/>
        <polygon class="cls-4" points="262.11 328.41 268.41 358.72 266.04 358.72 262.11 339.8 262.11 328.41"/>
        <polygon class="cls-4" points="262.11 317.01 270.78 358.72 268.41 358.72 262.11 328.41 262.11 317.01"/>
        <polygon class="cls-4" points="262.11 305.62 273.15 358.72 270.78 358.72 262.11 317.01 262.11 305.62"/>
        <polygon class="cls-4" points="262.11 294.23 275.51 358.72 273.15 358.72 262.11 305.62 262.11 294.23"/>
        <polygon class="cls-4" points="262.11 293.17 264.17 292.74 277.88 358.72 275.51 358.72 262.11 294.23 262.11 293.17"/>
        <polygon class="cls-4" points="264.17 292.74 266.44 292.27 280.25 358.72 277.88 358.72 264.17 292.74"/>
        <polygon class="cls-4" points="266.44 292.27 268.71 291.8 282.62 358.72 280.25 358.72 266.44 292.27"/>
        <polygon class="cls-4" points="268.71 291.8 270.98 291.33 284.98 358.72 282.62 358.72 268.71 291.8"/>
        <polygon class="cls-4" points="270.98 291.33 271.21 291.28 273.34 291.28 287.35 358.72 284.98 358.72 270.98 291.33"/>
        <polygon class="cls-4" points="275.7 291.28 289.72 358.72 287.35 358.72 273.34 291.28 275.7 291.28"/>
        <polygon class="cls-4" points="278.07 291.28 292.09 358.72 289.72 358.72 275.7 291.28 278.07 291.28"/>
        <polygon class="cls-4" points="280.44 291.28 294.45 358.72 292.09 358.72 278.07 291.28 280.44 291.28"/>
        <polygon class="cls-4" points="282.81 291.28 296.82 358.72 294.45 358.72 280.44 291.28 282.81 291.28"/>
        <polygon class="cls-4" points="285.17 291.28 299.19 358.72 296.82 358.72 282.81 291.28 285.17 291.28"/>
        <polygon class="cls-4" points="287.54 291.28 301.56 358.72 299.19 358.72 285.17 291.28 287.54 291.28"/>
        <polygon class="cls-4" points="289.91 291.28 303.92 358.72 301.56 358.72 287.54 291.28 289.91 291.28"/>
        <polygon class="cls-4" points="292.28 291.28 306.29 358.72 303.92 358.72 289.91 291.28 292.28 291.28"/>
        <polygon class="cls-4" points="294.64 291.28 308.66 358.72 306.29 358.72 292.28 291.28 294.64 291.28"/>
        <polygon class="cls-4" points="297.01 291.28 311.03 358.72 308.66 358.72 294.64 291.28 297.01 291.28"/>
        <polygon class="cls-4" points="299.38 291.28 313.39 358.72 311.03 358.72 297.01 291.28 299.38 291.28"/>
        <polygon class="cls-4" points="301.75 291.28 315.76 358.72 313.39 358.72 299.38 291.28 301.75 291.28"/>
        <polygon class="cls-4" points="304.11 291.28 318.13 358.72 315.76 358.72 301.75 291.28 304.11 291.28"/>
        <polygon class="cls-4" points="306.48 291.28 320.5 358.72 318.13 358.72 304.11 291.28 306.48 291.28"/>
        <polygon class="cls-4" points="308.85 291.28 322.86 358.72 320.5 358.72 306.48 291.28 308.85 291.28"/>
        <polygon class="cls-4" points="311.22 291.28 325.23 358.7 325.12 358.72 322.86 358.72 308.85 291.28 311.22 291.28"/>
        <polygon class="cls-4" points="313.58 291.28 325.68 349.49 325.68 358.61 325.23 358.7 311.22 291.28 313.58 291.28"/>
        <polygon class="cls-4" points="315.95 291.28 325.68 338.09 325.68 349.49 313.58 291.28 315.95 291.28"/>
        <polygon class="cls-4" points="318.32 291.28 325.68 326.7 325.68 338.09 315.95 291.28 318.32 291.28"/>
        <polygon class="cls-4" points="320.69 291.28 325.68 315.31 325.68 326.7 318.32 291.28 320.69 291.28"/>
        <polygon class="cls-4" points="323.05 291.28 325.68 303.91 325.68 315.31 320.69 291.28 323.05 291.28"/>
        <polygon class="cls-4" points="325.42 291.28 325.68 292.52 325.68 303.91 323.05 291.28 325.42 291.28"/>
        <polygon class="cls-4" points="325.68 292.52 325.42 291.28 325.68 291.28 325.68 292.52"/>
      </g>
    </g>
    <g>
      <path class="cls-5" d="m296.2,204.59c-15.91,1.94-28.71,15.53-29.4,31.08-.69,15.57,11.47,27.93,28.08,26.67,16.61-1.26,30.79-16.25,30.79-32.5s-13.56-27.19-29.48-25.24h0Z"/>
      <g class="cls-11">
        <polygon class="cls-4" points="266.11 256.49 267.59 263.6 266.11 263.6 266.11 256.49"/>
        <polygon class="cls-4" points="266.11 245.1 269.96 263.6 267.59 263.6 266.11 256.49 266.11 245.1"/>
        <polygon class="cls-4" points="266.11 233.71 272.32 263.6 269.96 263.6 266.11 245.1 266.11 233.71"/>
        <polygon class="cls-4" points="266.11 222.31 274.69 263.6 272.32 263.6 266.11 233.71 266.11 222.31"/>
        <polygon class="cls-4" points="266.11 210.92 277.06 263.6 274.69 263.6 266.11 222.31 266.11 210.92"/>
        <polygon class="cls-4" points="266.11 206.44 267.49 206.16 279.43 263.6 277.06 263.6 266.11 210.92 266.11 206.44"/>
        <polygon class="cls-4" points="267.49 206.16 269.76 205.69 281.79 263.6 279.43 263.6 267.49 206.16"/>
        <polygon class="cls-4" points="269.76 205.69 272.03 205.21 284.16 263.6 281.79 263.6 269.76 205.69"/>
        <polygon class="cls-4" points="272.03 205.21 274.3 204.74 286.53 263.6 284.16 263.6 272.03 205.21"/>
        <polygon class="cls-4" points="274.3 204.74 276.57 204.27 288.89 263.6 286.53 263.6 274.3 204.74"/>
        <polygon class="cls-4" points="276.57 204.27 278.84 203.8 291.26 263.6 288.89 263.6 276.57 204.27"/>
        <polygon class="cls-4" points="278.84 203.8 281.11 203.33 293.63 263.6 291.26 263.6 278.84 203.8"/>
        <polygon class="cls-4" points="281.11 203.33 283.37 202.86 296 263.6 293.63 263.6 281.11 203.33"/>
        <polygon class="cls-4" points="283.37 202.86 284.37 202.65 285.7 202.65 298.36 263.6 296 263.6 283.37 202.86"/>
        <polygon class="cls-4" points="288.07 202.65 300.73 263.6 298.36 263.6 285.7 202.65 288.07 202.65"/>
        <polygon class="cls-4" points="290.43 202.65 303.1 263.6 300.73 263.6 288.07 202.65 290.43 202.65"/>
        <polygon class="cls-4" points="292.8 202.65 305.47 263.6 303.1 263.6 290.43 202.65 292.8 202.65"/>
        <polygon class="cls-4" points="295.17 202.65 307.83 263.6 305.47 263.6 292.8 202.65 295.17 202.65"/>
        <polygon class="cls-4" points="297.54 202.65 310.2 263.6 307.83 263.6 295.17 202.65 297.54 202.65"/>
        <polygon class="cls-4" points="299.9 202.65 312.57 263.6 310.2 263.6 297.54 202.65 299.9 202.65"/>
        <polygon class="cls-4" points="302.27 202.65 314.9 263.41 313.98 263.6 312.57 263.6 299.9 202.65 302.27 202.65"/>
        <polygon class="cls-4" points="304.64 202.65 317.17 262.94 314.9 263.41 302.27 202.65 304.64 202.65"/>
        <polygon class="cls-4" points="307.01 202.65 319.43 262.47 317.17 262.94 304.64 202.65 307.01 202.65"/>
        <polygon class="cls-4" points="309.37 202.65 321.7 261.99 319.43 262.47 307.01 202.65 309.37 202.65"/>
        <polygon class="cls-4" points="311.74 202.65 323.97 261.52 321.7 261.99 309.37 202.65 311.74 202.65"/>
        <polygon class="cls-4" points="314.11 202.65 325.68 258.33 325.68 261.17 323.97 261.52 311.74 202.65 314.11 202.65"/>
        <polygon class="cls-4" points="316.47 202.65 325.68 246.94 325.68 258.33 314.11 202.65 316.47 202.65"/>
        <polygon class="cls-4" points="318.84 202.65 325.68 235.55 325.68 246.94 316.47 202.65 318.84 202.65"/>
        <polygon class="cls-4" points="321.21 202.65 325.68 224.16 325.68 235.55 318.84 202.65 321.21 202.65"/>
        <polygon class="cls-4" points="323.58 202.65 325.68 212.76 325.68 224.16 321.21 202.65 323.58 202.65"/>
        <polygon class="cls-4" points="325.68 212.76 323.58 202.65 325.68 202.65 325.68 212.76"/>
      </g>
    </g>
    <g>
      <path class="cls-5" d="m298,128.22c-14.97,2.79-26.99,15.54-27.63,29.18-.64,13.65,10.83,23.52,26.43,21.27,15.58-2.25,28.88-16.2,28.88-30.4s-12.73-22.84-27.68-20.05h0Z"/>
      <g class="cls-16">
        <polygon class="cls-4" points="269.72 171.3 271.72 180.93 269.72 180.93 269.72 171.3"/>
        <polygon class="cls-4" points="269.72 159.91 274.09 180.93 271.72 180.93 269.72 171.3 269.72 159.91"/>
        <polygon class="cls-4" points="269.72 148.52 276.45 180.93 274.09 180.93 269.72 159.91 269.72 148.52"/>
        <polygon class="cls-4" points="269.72 137.12 278.82 180.93 276.45 180.93 269.72 148.52 269.72 137.12"/>
        <polygon class="cls-4" points="269.72 130.74 270.72 130.54 281.19 180.93 278.82 180.93 269.72 137.12 269.72 130.74"/>
        <polygon class="cls-4" points="270.72 130.54 272.99 130.06 283.56 180.93 281.19 180.93 270.72 130.54"/>
        <polygon class="cls-4" points="272.99 130.06 275.26 129.59 285.92 180.93 283.56 180.93 272.99 130.06"/>
        <polygon class="cls-4" points="275.26 129.59 277.53 129.12 288.29 180.93 285.92 180.93 275.26 129.59"/>
        <polygon class="cls-4" points="277.53 129.12 279.79 128.65 290.66 180.93 288.29 180.93 277.53 129.12"/>
        <polygon class="cls-4" points="279.79 128.65 282.06 128.18 293.02 180.93 290.66 180.93 279.79 128.65"/>
        <polygon class="cls-4" points="282.06 128.18 284.33 127.71 295.39 180.93 293.02 180.93 282.06 128.18"/>
        <polygon class="cls-4" points="284.33 127.71 286.6 127.23 297.76 180.93 295.39 180.93 284.33 127.71"/>
        <polygon class="cls-4" points="286.6 127.23 288.87 126.76 300.13 180.93 297.76 180.93 286.6 127.23"/>
        <polygon class="cls-4" points="288.87 126.76 291.14 126.29 302.49 180.93 300.13 180.93 288.87 126.76"/>
        <polygon class="cls-4" points="291.14 126.29 293.41 125.82 304.86 180.93 302.49 180.93 291.14 126.29"/>
        <polygon class="cls-4" points="293.41 125.82 295.24 125.44 295.7 125.44 307.15 180.54 305.32 180.93 304.86 180.93 293.41 125.82"/>
        <polygon class="cls-4" points="298.07 125.44 309.42 180.07 307.15 180.54 295.7 125.44 298.07 125.44"/>
        <polygon class="cls-4" points="300.43 125.44 311.69 179.6 309.42 180.07 298.07 125.44 300.43 125.44"/>
        <polygon class="cls-4" points="302.8 125.44 313.96 179.13 311.69 179.6 300.43 125.44 302.8 125.44"/>
        <polygon class="cls-4" points="305.17 125.44 316.23 178.66 313.96 179.13 302.8 125.44 305.17 125.44"/>
        <polygon class="cls-4" points="307.54 125.44 318.5 178.19 316.23 178.66 305.17 125.44 307.54 125.44"/>
        <polygon class="cls-4" points="325.68 176.69 318.5 178.19 307.54 125.44 325.68 125.44 325.68 176.69"/>
      </g>
    </g>
    <g>
      <path class="cls-5" d="m299.62,60.98c-14.06,3.43-25.43,15.44-26.01,27.49-.58,12.03,10.27,20,24.92,17.01,14.65-2.99,27.14-16.26,27.14-28.74s-11.96-19.18-26.05-15.75h0Z"/>
      <g class="cls-27">
        <polygon class="cls-4" points="273.03 107.52 273.23 108.47 273.03 108.47 273.03 107.52"/>
        <polygon class="cls-4" points="273.03 96.12 275.6 108.47 273.23 108.47 273.03 107.52 273.03 96.12"/>
        <polygon class="cls-4" points="273.03 84.73 277.96 108.47 275.6 108.47 273.03 96.12 273.03 84.73"/>
        <polygon class="cls-4" points="273.03 73.33 280.33 108.47 277.96 108.47 273.03 84.73 273.03 73.33"/>
        <polygon class="cls-4" points="273.03 62.97 273.24 62.93 282.7 108.47 280.33 108.47 273.03 73.33 273.03 62.97"/>
        <polygon class="cls-4" points="273.24 62.93 275.51 62.46 285.07 108.47 282.7 108.47 273.24 62.93"/>
        <polygon class="cls-4" points="275.51 62.46 277.78 61.98 287.43 108.47 285.07 108.47 275.51 62.46"/>
        <polygon class="cls-4" points="277.78 61.98 280.04 61.51 289.8 108.47 287.43 108.47 277.78 61.98"/>
        <polygon class="cls-4" points="280.04 61.51 282.31 61.04 292.17 108.47 289.8 108.47 280.04 61.51"/>
        <polygon class="cls-4" points="282.31 61.04 284.58 60.57 294.54 108.47 292.17 108.47 282.31 61.04"/>
        <polygon class="cls-4" points="284.58 60.57 286.85 60.1 296.9 108.47 294.54 108.47 284.58 60.57"/>
        <polygon class="cls-4" points="286.85 60.1 289.12 59.63 299.26 108.41 298.98 108.47 296.9 108.47 286.85 60.1"/>
        <rect class="cls-4" x="294.17" y="58.87" width="2.32" height="49.82" transform="translate(-10.87 61.84) rotate(-11.74)"/>
        <rect class="cls-4" x="296.44" y="58.4" width="2.32" height="49.82" transform="translate(-10.73 62.29) rotate(-11.74)"/>
        <polygon class="cls-4" points="293.66 58.68 299.12 57.55 325.68 57.55 325.68 102.92 303.8 107.47 293.66 58.68"/>
      </g>
    </g>
    <g>
      <path class="cls-5" d="m301.17,1.3c-13.28,3.96-24.07,15.44-24.6,26.14-.54,10.69,9.78,16.96,23.6,13.35,13.8-3.6,25.51-16.04,25.51-27.11s-11.23-16.33-24.51-12.38h0Z"/>
      <g class="cls-15">
        <polygon class="cls-4" points="276.03 42.15 276.5 44.41 276.03 44.41 276.03 42.15"/>
        <polygon class="cls-4" points="276.03 30.76 278.86 44.41 276.5 44.41 276.03 42.15 276.03 30.76"/>
        <polygon class="cls-4" points="276.03 19.37 281.23 44.41 278.86 44.41 276.03 30.76 276.03 19.37"/>
        <polygon class="cls-4" points="276.03 7.97 283.6 44.41 281.23 44.41 276.03 19.37 276.03 7.97"/>
        <polygon class="cls-4" points="276.03 2.3 277.17 2.07 285.97 44.41 283.6 44.41 276.03 7.97 276.03 2.3"/>
        <polygon class="cls-4" points="277.17 2.07 279.44 1.59 288.33 44.41 285.97 44.41 277.17 2.07"/>
        <polygon class="cls-4" points="279.44 1.59 281.71 1.12 290.7 44.41 288.33 44.41 279.44 1.59"/>
        <polygon class="cls-4" points="281.71 1.12 299.85 -2.65 325.68 -2.65 325.68 39.27 300.94 44.41 290.7 44.41 281.71 1.12"/>
      </g>
    </g>
  </g>
  <g>
    <path class="cls-4" d="m462.85,298.01c13.85.76,25.8,13.75,27.38,29.67,1.57,15.93-8.24,29.48-22.61,29.47-14.38-.01-27.64-14.23-28.66-30.87-1.03-16.64,10.02-29.02,23.89-28.27h0Z"/>
    <path class="cls-4" d="m455.98,215.69c13.09,1.64,24.42,13.82,25.83,27.73,1.41,13.9-7.94,24.92-21.5,23.83-13.56-1.08-25.96-14.36-26.92-28.85-.94-14.49,9.52-24.35,22.59-22.71h0Z"/>
    <path class="cls-4" d="m449.77,143.32c12.39,2.37,23.1,13.85,24.39,26.14,1.28,12.28-7.6,21.17-20.44,19.26-12.85-1.92-24.52-14.37-25.38-27.1-.86-12.71,9.03-20.66,21.43-18.29h0Z"/>
    <path class="cls-4" d="m444.05,79.26c11.75,2.92,21.92,13.71,23.09,24.63,1.19,10.91-7.32,18.22-19.48,15.63-12.15-2.59-23.21-14.39-23.99-25.65-.77-11.27,8.63-17.52,20.38-14.61h0Z"/>
    <path class="cls-4" d="m438.83,22.09c11.19,3.37,20.82,13.68,21.9,23.42,1.09,9.74-7.04,15.62-18.59,12.52-11.54-3.08-21.99-14.25-22.71-24.25-.71-10.01,8.21-15.06,19.4-11.69h0Z"/>
    <path class="cls-4" d="m379.29,292.16c16.97.89,30.57,15.44,31.35,33.36.77,17.92-12.16,33.2-29.9,33.2s-32.9-16.06-32.9-34.87,14.48-32.58,31.45-31.7h0Z"/>
    <path class="cls-4" d="m377.31,204.59c15.92,1.94,28.71,15.53,29.42,31.08.69,15.57-11.49,27.93-28.09,26.67-16.62-1.26-30.81-16.25-30.81-32.5s13.58-27.19,29.48-25.24h0Z"/>
    <path class="cls-4" d="m375.53,128.22c14.97,2.79,27,15.54,27.63,29.18.64,13.65-10.83,23.52-26.44,21.27-15.58-2.25-28.89-16.2-28.89-30.4s12.74-22.84,27.7-20.05h0Z"/>
    <path class="cls-4" d="m373.88,60.98c14.09,3.43,25.44,15.44,26.03,27.49.58,12.03-10.26,20-24.92,17.01-14.67-2.99-27.16-16.26-27.16-28.74s11.98-19.18,26.05-15.75h0Z"/>
    <path class="cls-4" d="m372.35,1.3c13.27,3.96,24.09,15.44,24.6,26.14.54,10.69-9.76,16.96-23.59,13.35-13.81-3.6-25.53-16.04-25.53-27.11s11.24-16.33,24.52-12.38h0Z"/>
  </g>
</svg>